<?xml version="1.0" encoding="UTF-8" standalone="no"?>
<!-- Created with Inkscape (http://www.inkscape.org/) -->

<svg
   version="1.1"
   id="svg2"
   width="390"
   height="389.61334"
   viewBox="0 0 390 389.61334"
   sodipodi:docname="chain.eps"
   xmlns:inkscape="http://www.inkscape.org/namespaces/inkscape"
   xmlns:sodipodi="http://sodipodi.sourceforge.net/DTD/sodipodi-0.dtd"
   xmlns="http://www.w3.org/2000/svg"
   xmlns:svg="http://www.w3.org/2000/svg">
  <defs
     id="defs6" />
  <sodipodi:namedview
     id="namedview4"
     pagecolor="#ffffff"
     bordercolor="#000000"
     borderopacity="0.25"
     inkscape:showpageshadow="2"
     inkscape:pageopacity="0.0"
     inkscape:pagecheckerboard="0"
     inkscape:deskcolor="#d1d1d1" />
  <g
     id="g8"
     inkscape:groupmode="layer"
     inkscape:label="ink_ext_XXXXXX"
     transform="matrix(1.3333333,0,0,-1.3333333,0,389.61333)">
    <g
       id="g10"
       transform="scale(0.1)">
      <path
         d="m 1816.73,2704.24 c -109.43,33.67 -242.25,65.31 -367.2,62.4 -187.29,-4.37 -375.55,-64.36 -523.202,-132 -144.957,-66.4 -278.824,-149.92 -386.402,-261.6 -159.285,-165.36 -275.59,-376.05 -340.801,-631.2 -22.43,-87.77 -43.195,-185.47 -43.195,-280.8 0,-95.8 19.562,-183.8 38.394,-264 18.778,-79.95 43.356,-152.53 74.403,-228.001 -13.45,-24.078 -38.821,-48.078 -48,-84.008 C 186.973,752.949 284.098,676.512 415.129,700.238 558.164,495.551 764.645,345.359 1015.13,249.039 c 127.7,-49.109 282.01,-88.539 432,-93.609 75.13,-2.532 158.17,12.742 232.8,28.8 73.87,15.911 141.41,34.09 206.4,57.602 247.85,89.688 461.3,232.648 609.6,441.598 105.8,149.082 192.44,334.63 240,547.21 16.44,73.48 31.57,154.92 31.2,232.8 -0.71,151.08 -43.29,278.66 -79.2,400.8 23.62,27.18 53.53,42.07 64.8,76.8 39.58,121.97 -66.9,263.37 -201.6,213.6 -161.13,262.34 -408.05,449.18 -734.4,549.6 z m -429.6,216 c 475.17,22.63 828.67,-165.3 1072.8,-388.8 132.24,-121.07 224.84,-251.42 309.61,-420 80.32,-159.78 143.2,-357.78 153.59,-576.01 C 2945.86,1058.2 2755.47,707.262 2531.93,465.031 2306.81,221.102 1980.72,23.0117 1535.93,1.83203 1064.58,-20.6094 709.246,166.301 465.527,388.242 338.402,503.988 234.773,644.23 153.523,805.84 71.0156,969.949 14.293,1159.13 2.32422,1384.23 -23.1719,1864.01 164.836,2211.06 388.727,2454.64 c 197.058,214.38 469.957,386.24 828.003,448.8 56.75,9.92 116.43,14.23 170.4,16.8"
         style="fill:#000000;fill-opacity:1;fill-rule:evenodd;stroke:none"
         id="path12" />
      <path
         d="m 1598.33,1965.04 c -53.87,-25.13 -110.49,-39.56 -165.6,-64.8 -106.12,-48.61 -199.36,-108.71 -300,-163.2 -52.66,-28.51 -106.02,-51.22 -144.003,-88.8 -33.231,-32.88 -71.524,-88.23 -50.399,-148.8 42.293,5.78 48.742,36.75 81.602,48 85.9,29.4 191.25,-60.35 160.8,-146.4 -13.44,-38 -50.78,-63.77 -76.8,-84 -8.29,-6.45 -25.38,-14.1 -19.2,-31.2 30.13,-11.4 70.96,-25.68 115.2,-21.61 51.01,4.7 84.72,37.45 124.8,57.61 84.63,42.55 164.09,86.61 249.6,129.6 72.26,36.32 180.95,77.8 232.8,146.4 12.01,15.88 43.37,71.54 31.2,86.4 -16.61,20.27 -97.08,-28.38 -144,-19.21 -36.41,7.12 -93.27,83.49 -86.4,132.01 2.4,16.94 38.63,76.26 50.4,84 24.35,16.02 73.66,1.72 84,38.4 -24.69,32.07 -85.05,52.71 -144,45.6 z m 417.6,38.4 c 160.27,43.72 298.69,52.26 460.8,93.6 42.49,10.84 110.17,35.19 153.6,26.4 64.12,-12.98 118.37,-116.5 76.8,-184.8 -23.82,-39.15 -82.05,-45.57 -141.6,-57.6 -140.35,-28.37 -272.04,-53.09 -415.2,-81.6 -18.62,-3.71 -62.15,-12.87 -72,-26.4 -22.91,-31.5 -8.04,-111.3 -16.8,-158.41 -17.76,-95.49 -76.29,-176.58 -136.8,-232.79 -61.18,-56.84 -151,-95.68 -232.8,-136.81 -121.02,-60.84 -245.94,-120.21 -379.2,-175.19 -41.22,-17.01 -96,-39.68 -146.4,-38.41 -25.92,0.66 -58.56,10.96 -88.8,16.81 -65.85,12.73 -98.842,27.12 -146.401,60 -17.356,11.99 -45.488,34.95 -69.602,33.6 -27.195,-1.52 -52.687,-49.71 -69.597,-64.8 -58.051,-51.81 -122.367,-91.169 -189.602,-158.399 -28.691,-28.692 -53.633,-55.629 -84.004,-88.801 -25.672,-28.059 -58.613,-71.309 -88.797,-84 -96.906,-40.781 -213.707,29.672 -168,139.191 20.68,49.559 70.368,84.77 105.602,119.999 93.961,93.97 179.809,186.82 288,276.01 14.379,11.85 56.937,36.02 60,50.4 4.937,23.21 -17.918,69.37 -21.598,83.99 -23.918,94.95 -2.941,181.6 31.196,254.41 110.152,234.94 365.583,312.46 597.603,439.2 44.37,24.24 96.76,56.44 146.4,69.6 39.98,10.59 83.37,3.63 127.2,21.6 19.57,8.02 70.61,-1.26 103.2,-7.2 85.69,-15.61 174.43,-48.02 230.4,-93.6 33.49,-27.28 49.82,-71.86 86.4,-96"
         style="fill:#000000;fill-opacity:1;fill-rule:evenodd;stroke:none"
         id="path14" />
    </g>
  </g>
</svg>
