<?xml version="1.0" encoding="UTF-8" standalone="no"?>
<!-- Created with Inkscape (http://www.inkscape.org/) -->

<svg
   version="1.1"
   id="svg2"
   width="1300"
   height="1301.3333"
   viewBox="0 0 1300 1301.3333"
   sodipodi:docname="longsword.eps"
   xmlns:inkscape="http://www.inkscape.org/namespaces/inkscape"
   xmlns:sodipodi="http://sodipodi.sourceforge.net/DTD/sodipodi-0.dtd"
   xmlns="http://www.w3.org/2000/svg"
   xmlns:svg="http://www.w3.org/2000/svg">
  <defs
     id="defs6">
    <clipPath
       clipPathUnits="userSpaceOnUse"
       id="clipPath18">
      <path
         d="M 0,3.83984 H 9750 V 9753.8398 H 0 Z"
         id="path16" />
    </clipPath>
  </defs>
  <sodipodi:namedview
     id="namedview4"
     pagecolor="#ffffff"
     bordercolor="#000000"
     borderopacity="0.25"
     inkscape:showpageshadow="2"
     inkscape:pageopacity="0.0"
     inkscape:pagecheckerboard="0"
     inkscape:deskcolor="#d1d1d1" />
  <g
     id="g8"
     inkscape:groupmode="layer"
     inkscape:label="ink_ext_XXXXXX"
     transform="matrix(1.3333333,0,0,-1.3333333,0,1301.3333)">
    <g
       id="g10"
       transform="scale(0.1)">
      <g
         id="g12">
        <g
           id="g14"
           clip-path="url(#clipPath18)">
          <path
             d="M 4540.82,17.5508 C 2466.76,162.16 717.73,1597.24 169.262,3604.46 10.8594,4184.19 -37.6992,4814.03 29.2188,5420.56 220.199,7150.64 1336.02,8660.91 2933.59,9351.53 c 782.31,338.21 1632.86,466.02 2479.22,372.62 1629.77,-179.88 3068.75,-1178.94 3807.58,-2643.59 301.45,-597.58 470.2,-1214.57 516.33,-1887.97 16.8,-245.31 8.59,-590.2 -20.31,-852.03 C 9536.52,2710.79 8537.46,1271.85 7072.81,533.02 6475.23,231.57 5858.2,62.8203 5184.8,16.6914 5049.38,7.39063 4679.22,7.89844 4540.82,17.5508 Z M 5084.8,545.172 c 351.49,31.719 736.57,113.898 1088.01,232.219 576.37,194.07 1101.76,487.819 1569.89,877.699 141.87,118.16 200.42,175.43 311.52,304.61 415.08,482.69 732.34,1043.9 928.32,1642.19 42.97,131.17 47.81,141.64 67.54,145.66 11.72,2.38 36.95,15.39 56.09,28.87 19.14,13.51 49.18,26.6 66.72,29.1 69.81,10.04 98.16,27.11 169.34,101.91 42.69,44.85 76.4,88.67 88.39,114.85 19.18,41.87 19.38,44.68 16.8,248.32 -3.01,239.41 -2.07,235.93 -87.97,318.75 -59.49,57.34 -95.43,83.16 -115.86,83.36 -32.85,0.27 -34.61,7.5 -26.36,108.16 5.54,67.89 5.07,130.59 -1.72,215.7 -5.28,66.02 -9.85,139.69 -10.16,163.79 l -0.55,43.75 100,10.55 100,10.51 45.04,44.49 c 65.39,64.61 70.98,87.11 70.98,286.09 v 161.33 l -46.05,45.59 -46.1,45.58 -171.91,2.15 -171.96,2.19 -30.42,111.99 c -71.68,263.56 -163.29,508.63 -303.99,813.16 -155.16,335.83 -426.37,750.36 -695.35,1062.82 -111.99,130.11 -170.43,187.3 -312.34,305.51 -671.57,559.33 -1477.54,928.24 -2329.89,1066.36 -450.58,73.01 -629.41,73.01 -1080,0 -764.22,-123.86 -1496.09,-434.96 -2120,-901.17 C 1968.63,8088.8 1835,7968.37 1690.59,7800.56 1421.6,7488.1 1150.39,7073.57 995.27,6737.74 886.09,6501.49 847.539,6406.38 775.98,6196.85 l -54.57,-159.69 -42.308,-8.71 c -23.243,-4.81 -53.793,-14.85 -67.891,-22.31 -14.063,-7.46 -31.52,-13.55 -38.75,-13.55 -18.832,0 -56.051,-27.15 -114.262,-83.24 -85.898,-82.82 -84.961,-79.34 -87.969,-318.75 -2.57,-203.64 -2.378,-206.45 16.758,-248.32 11.992,-26.14 45.711,-69.96 88.282,-114.69 l 68.871,-72.38 -8.442,-75.32 c -12.5,-111.68 -10.738,-298.82 4.141,-440.9 7.23,-69.06 15.32,-131.17 17.93,-138 4.109,-10.75 -6.829,-12.42 -81.872,-12.42 h -86.597 l -46.25,-45.75 -46.211,-45.74 v -161.33 c 0,-198.94 5.539,-221.44 70.93,-286.17 l 45.082,-44.57 268.199,-27.58 8.25,-32.42 c 59.41,-234.1 162.929,-512.03 305.969,-821.6 155.12,-335.82 426.33,-750.39 695.32,-1062.85 144.41,-167.78 278.04,-288.21 522.22,-470.67 713.01,-532.812 1596.41,-872.609 2456.02,-944.718 57.19,-4.813 116.6,-10.121 131.99,-11.844 35.74,-4.019 170.82,1.602 283.98,11.844 z M 7992.81,3820.6 c -10.35,10.97 -31.68,23.82 -47.38,28.47 -57.03,16.96 -481.95,24.07 -956.6,16.06 -306.29,-5.16 -481.68,-5.12 -516.02,0.11 -93.63,14.3 -973.59,23.05 -1391.99,13.83 -361.09,-7.93 -401.6,-7.42 -583.98,7.35 -140.32,11.36 -217.62,14.1 -272.04,9.65 -41.79,-3.44 -335,-10.12 -651.52,-14.77 -527.77,-7.81 -577.23,-7.46 -595.51,4.53 -25.31,16.56 -109.96,99.73 -113.94,111.95 -2.23,6.84 -31.53,7.15 -115,1.18 -62.23,-4.46 -259.53,-6.33 -444.03,-4.26 -182.57,2.03 -367.96,0.82 -411.99,-2.74 -43.98,-3.55 -224.96,-8.08 -402.11,-10.04 -203.86,-2.26 -325.78,-6.6 -332.03,-11.83 -22.89,-18.99 -258.049,-24.14 -441.83,-9.69 -273.719,21.52 -282.192,23.99 -318.719,92.19 -15.191,28.32 -17.461,47.42 -19.922,166.87 l -2.769,134.93 25.351,26.17 25.348,26.13 341.332,0.23 c 317.849,0.2 349.609,-1.05 461.369,-18.35 97.15,-15 166.44,-19.46 363.98,-23.4 134.22,-2.66 305.2,-8.79 380,-13.64 153.56,-9.92 540.98,-3.28 565.2,9.69 9.88,5.27 64.02,6.21 153.67,2.62 172.38,-6.92 189.14,-4.18 215.31,35.43 11.06,16.64 32.58,43.55 47.89,59.8 l 27.82,29.5 227.07,-0.24 c 124.88,-0.16 315.23,-3.63 423.04,-7.77 107.81,-4.1 408.4,-7.74 668.01,-8.05 259.61,-0.27 581.8,-4.3 716.02,-8.87 270.54,-9.25 1797.77,-10.47 2462.77,-1.95 l 426.8,5.47 34.02,36.05 34.06,36.02 183.17,6.33 c 100.74,3.47 246.17,9.96 323.16,14.33 76.99,4.42 185,10.35 240,13.17 91.84,4.68 101.72,6.76 121.13,25 23.83,22.38 87.46,33.79 190.71,34.26 57.93,0.23 109.37,-13.29 198.24,-52.15 36.83,-16.14 95.98,-72.82 115.94,-111.14 15.23,-29.25 17.22,-48.75 20.11,-196.79 l 3.21,-164.38 -21.29,-44.96 c -44.57,-94.14 -139.57,-174.33 -206.57,-174.33 -15.19,0 -44.25,-11.88 -73.32,-30 l -48.16,-30 -211.99,-0.71 c -116.6,-0.39 -314.61,-6.68 -440,-13.98 -125.39,-7.31 -257.07,-13.28 -292.62,-13.28 -58.59,-0.04 -66.37,1.83 -83.4,20 z m -6560,1313.55 c -98.98,6.13 -282.58,11.92 -408.01,12.81 l -227.96,1.61 -48.168,30 c -29.102,18.12 -58.16,30 -73.363,30 -66.95,0 -161.989,80.19 -206.559,174.33 l -21.289,44.96 3.199,164.38 c 2.891,148.04 4.891,167.54 20.16,196.79 19.961,38.32 79.102,95 115.942,111.14 88.828,38.86 140.308,52.38 198.238,52.15 103.238,-0.47 166.879,-11.88 190.699,-34.26 19.379,-18.24 29.301,-20.32 121.141,-25 55,-2.82 162.96,-8.75 240,-13.17 76.99,-4.37 222.42,-10.86 323.16,-14.33 l 183.16,-6.33 34.03,-36.02 34.06,-36.05 426.8,-5.47 c 664.96,-8.52 2192.22,-7.3 2462.77,1.95 134.18,4.57 456.41,8.6 716.02,8.87 259.57,0.31 560.19,3.95 667.96,8.05 107.82,4.14 298.21,7.61 423.09,7.77 l 227.03,0.24 27.85,-29.5 c 15.28,-16.25 36.84,-43.16 47.85,-59.8 26.22,-39.61 42.93,-42.35 215.32,-35.43 89.68,3.59 143.79,2.65 153.71,-2.62 24.22,-12.97 411.64,-19.61 565.15,-9.69 74.81,4.85 245.82,10.98 380,13.64 197.58,3.94 266.88,8.4 364.03,23.4 111.72,17.3 143.47,18.55 461.33,18.35 l 341.32,-0.23 25.36,-26.13 25.35,-26.17 -2.74,-134.93 c -2.46,-119.45 -4.72,-138.55 -19.92,-166.87 -36.56,-68.2 -45.04,-70.67 -318.71,-92.19 -183.79,-14.45 -418.98,-9.3 -441.84,9.69 -6.28,5.23 -128.2,9.57 -332.03,11.83 -177.18,1.96 -358.12,6.49 -402.15,10.04 -43.98,3.56 -229.37,4.77 -411.99,2.74 -184.45,-2.07 -381.76,-0.2 -443.98,4.26 -83.52,5.97 -112.78,5.66 -115,-1.18 -3.99,-12.22 -88.67,-95.39 -113.99,-111.95 -18.28,-11.99 -67.69,-12.34 -595.46,-4.53 -316.57,4.65 -609.77,11.33 -651.57,14.77 -54.37,4.45 -131.68,1.71 -271.99,-9.65 -182.42,-14.77 -222.89,-15.28 -583.98,-7.35 -418.44,9.22 -1298.4,0.47 -1392.04,-13.83 -34.29,-5.23 -209.72,-5.27 -515.97,-0.11 -474.65,8.01 -899.57,0.9 -956.6,-16.06 -15.75,-4.65 -37.07,-17.5 -47.39,-28.47 -18.2,-19.38 -21.95,-20 -115.43,-18.83 -53.12,0.66 -177.57,6.25 -276.6,12.38 z"
             style="fill:#000000;fill-opacity:1;fill-rule:nonzero;stroke:none"
             id="path20" />
        </g>
      </g>
    </g>
  </g>
</svg>
