<?xml version="1.0" encoding="UTF-8" standalone="no"?>
<!-- Created with Inkscape (http://www.inkscape.org/) -->

<svg
   version="1.1"
   id="svg2"
   width="392.35999"
   height="391.97333"
   viewBox="0 0 392.35999 391.97333"
   sodipodi:docname="qwik.eps"
   xmlns:inkscape="http://www.inkscape.org/namespaces/inkscape"
   xmlns:sodipodi="http://sodipodi.sourceforge.net/DTD/sodipodi-0.dtd"
   xmlns="http://www.w3.org/2000/svg"
   xmlns:svg="http://www.w3.org/2000/svg">
  <defs
     id="defs6" />
  <sodipodi:namedview
     id="namedview4"
     pagecolor="#ffffff"
     bordercolor="#000000"
     borderopacity="0.25"
     inkscape:showpageshadow="2"
     inkscape:pageopacity="0.0"
     inkscape:pagecheckerboard="0"
     inkscape:deskcolor="#d1d1d1" />
  <g
     id="g8"
     inkscape:groupmode="layer"
     inkscape:label="ink_ext_XXXXXX"
     transform="matrix(1.3333333,0,0,-1.3333333,0,391.97333)">
    <g
       id="g10"
       transform="scale(0.1)">
      <path
         d="m 1306.18,2764.07 c -143.8,-23.94 -268.71,-66.76 -376.664,-115.9 C 774.504,2577.6 644.172,2495.39 538.363,2382.57 384.148,2218.13 257.051,2001.27 195.504,1740.31 174.18,1649.9 154.137,1549.04 159.281,1452.98 169.82,1256.41 222.324,1077.65 289.668,929.031 459.02,555.309 762.367,304.012 1199.94,197.43 c 90.18,-21.969 189.54,-42.821 284.92,-38.641 190.97,8.391 372.7,61.109 523.94,130.391 150.15,68.781 284.51,153.242 391.16,265.601 155.63,163.957 280.08,380.641 342.86,642.269 20.64,86.03 44.26,192.26 41.05,287.32 -9.63,284.92 -126.22,548.17 -251.11,731.6 -43.72,64.21 -89,129.82 -144.87,183.5 -160.59,154.28 -386.62,281.12 -642.27,342.86 -85.93,20.76 -199.18,42.61 -289.74,38.63 -49.55,-2.17 -99.69,-8.57 -149.7,-16.89 z m 89.34,173.84 c 478.04,22.76 833.67,-166.29 1079.29,-391.15 133.04,-121.8 226.2,-252.94 311.47,-422.54 80.81,-160.74 144.08,-359.93 154.54,-579.49 C 2963.68,1064.6 2772.13,711.551 2547.24,467.859 2320.77,222.449 1992.7,23.1602 1545.22,1.85156 1071.02,-20.7305 713.539,167.32 468.344,390.59 340.453,507.051 236.195,648.141 154.457,810.719 71.4453,975.82 14.3789,1166.14 2.33984,1392.62 -23.3164,1875.29 165.836,2224.44 391.078,2469.49 c 198.254,215.69 472.801,388.58 833.012,451.52 57.1,9.97 117.13,14.32 171.43,16.9"
         style="fill:#000000;fill-opacity:1;fill-rule:evenodd;stroke:none"
         id="path12" />
      <path
         d="m 1132.33,1494.03 c -3.28,13.19 9.67,7.38 16.91,12.07 12.83,8.32 20.71,26.34 48.29,21.73 11.8,-1.97 28.52,-11.12 48.29,-4.83 14.55,4.63 51.31,35.38 53.12,50.71 3.32,28.23 -62.1,92.63 -79.68,115.89 -14.15,18.72 -17.49,44.94 -43.46,45.88 -12.83,0.47 -49.65,-18.56 -62.78,-24.15 -12.05,4.26 -27.96,-2.69 -38.63,-7.24 -14.55,6.58 -25.61,-4 -41.05,-7.24 -29.08,-6.11 -64.102,-6.41 -84.508,-16.9 -27.406,-14.1 -47.344,-38.74 -74.848,-45.88 -7.461,12.49 3.329,24.91 4.829,36.22 63.515,40.46 107.324,74.68 171.427,111.07 66.92,0.84 153.31,2.53 224.55,2.41 5.04,-0.01 12.27,3.25 16.9,2.42 21.46,-3.85 37.48,-24.62 60.37,-14.49 19.15,-24.87 62.32,-27.4 86.92,-48.29 13.95,-11.85 35.06,-41.99 36.22,-60.37 2.06,-32.6 -37.4,-91.94 -53.12,-120.72 -7.13,-13.06 -10.51,-29.36 -16.9,-38.63 -15.95,-23.17 -46.82,-33.66 -60.37,-50.71 -30.95,-8.71 -65.84,-26.66 -94.16,-2.42 -48.03,-3.03 -73.07,35.87 -118.32,43.47"
         style="fill:#000000;fill-opacity:1;fill-rule:evenodd;stroke:none"
         id="path14" />
      <path
         d="m 2151.26,1346.74 c -62.39,44.65 -120.62,93.47 -185.91,135.21 -50.71,-65.2 -97.84,-133.96 -154.53,-193.16 -81.92,36.4 -161.89,74.74 -246.28,108.66 -14.45,-70.06 -28.82,-140.21 -48.29,-205.24 -21.21,9.39 -41.44,19.74 -67.61,24.15 -12.45,-9.56 -7.5,-22.82 -9.66,-36.22 -18.97,-14.71 -35.03,-37.35 -31.39,-67.61 20.12,-17.92 36.33,-4.87 60.36,-7.24 6.22,-0.62 11.77,-4.96 16.91,-4.83 2.93,0.08 9.25,5.23 12.07,4.83 11.76,-1.67 21.51,-11.25 33.8,-12.07 22.4,-1.5 45.94,3.58 67.6,4.82 69.26,-9.84 140.36,16.64 200.42,21.74 6.34,3.3 9.15,10.16 16.9,12.07 31.69,-7.97 54.99,12.36 79.68,19.32 13.91,3.91 28.33,-3.05 33.8,12.07 53.23,1.55 98.05,32.28 137.62,55.53 23.07,1.29 47.63,21.44 65.2,36.22 3.26,-0.76 4.61,-3.43 9.66,-2.42 5.16,4.49 4.35,14.96 12.07,16.91 3.26,-0.76 4.61,-3.44 9.65,-2.42 29.06,31.37 71.62,46.99 101.41,77.27 15.44,15.68 27.45,37.92 38.63,55.53 16.75,26.37 46.36,50.7 45.88,86.92 -65.49,-37.53 -129.58,-97.38 -197.99,-140.04 z m -156.94,386.33 c 78.53,32.53 209.39,12.74 243.87,89.33 -177.7,126.05 -446.71,175.7 -726.78,169.02 -6.64,-1.4 -10.08,-6.01 -16.89,-7.24 -59.39,9.05 -131.66,-14.47 -181.1,-26.56 -66.43,-16.26 -121.94,-32.1 -183.5,-55.54 -108.49,-41.3 -199.26,-82.48 -282.498,-142.46 -114.293,-82.35 -232.359,-183.01 -243.867,-357.34 -7.633,-17.69 -7.696,-37.97 -4.828,-55.54 17.418,-106.64 107.203,-220.29 188.336,-268.01 37.886,-22.29 58.066,-30.33 101.41,-50.71 19.293,-9.07 40.007,-23.41 57.945,-28.969 9.922,-3.082 21.547,-1.512 31.391,-4.832 24.121,-8.149 58.161,-24.059 79.681,-28.969 7.13,-1.629 17.93,1.488 26.56,0 14.83,-2.57 21.86,-10.551 31.38,-9.66 18.11,1.691 54.51,31.148 70.02,45.88 9.82,9.31 19.6,23.8 31.4,36.21 27.27,28.7 55.85,60.34 82.09,86.92 17.33,17.57 16.08,21.31 26.56,41.05 12.78,24.11 44.21,42.75 38.63,79.68 -12.72,18.67 -49.95,12.83 -41.05,53.12 33.36,-9.3 67.06,-18.25 101.41,-26.56 42.18,72.11 81.64,146.94 127.98,214.89 83.56,-33.93 166.77,-68.23 248.69,-103.82 53.11,58.75 94.17,129.57 147.28,188.33 67.66,-45.82 131.31,-95.65 200.41,-140.05 86.21,45.79 168.29,95.71 255.94,140.05 -3.61,24.62 -11.76,51.62 -21.73,74.85 -15.34,35.71 -39.44,69.05 -62.78,94.17 -100.25,0.62 -219.85,-6.83 -294.57,-12.07 36.65,7.56 -25.96,3.14 -31.39,4.83 z M 1381.03,2187 c -0.54,-35.62 28.7,-32.21 65.2,-24.15 4.2,0.93 9.91,6.76 14.48,7.24 8.42,0.89 17.17,-3.38 24.15,-2.41 24.02,3.33 48.75,11.15 67.61,12.07 24.64,1.21 51.09,0.59 79.67,2.41 21.32,1.36 44.2,-4.33 67.61,-4.82 12.56,-0.27 24.83,5.52 36.21,4.82 12.58,-0.76 23.97,-8.92 36.22,-9.65 7.16,-0.43 15.13,4.84 21.73,4.83 64.83,-0.17 124.42,-27.79 190.75,-28.98 7.06,-1.78 11.87,-5.84 16.91,-9.65 116.1,-22.4 219.62,-70.54 306.64,-125.56 25.91,-16.38 46.27,-40.37 70.02,-55.53 3.83,-2.44 10.75,-2.02 14.49,-4.83 18.42,-13.87 32.01,-34.34 48.28,-48.29 5.14,-4.41 14.63,-5.15 19.32,-9.66 4.41,-4.24 6.53,-13.57 12.08,-19.32 33.6,-34.88 66.44,-79.55 86.92,-132.8 7.67,-19.94 18.82,-40.58 21.73,-55.53 11.03,-56.7 5.16,-140.35 36.22,-178.67 -4.54,-18.81 -11.41,-35.29 -21.74,-48.29 -19.88,-2.19 -31.72,3.68 -43.45,9.65 -4.51,5.96 0.16,21.09 -9.66,21.73 -30.75,1 -22.46,-32.75 -28.98,-53.12 -6.56,-20.53 -28.37,-42.33 -26.56,-65.18 -17.03,-8.67 -13.52,-29.18 -21.73,-43.47 -4.21,-7.33 -14.49,-11.34 -21.73,-19.32 -14.06,-15.51 -24.41,-38.26 -36.22,-50.7 -80.71,-85.03 -175.13,-155.36 -284.91,-210.06 -4.83,0 -9.66,0 -14.49,0 -44.24,-19.98 -84.25,-41.26 -140.04,-50.709 -13.48,-2.281 -25.31,-14.09 -38.63,-16.903 -8.23,-1.738 -17.85,1.071 -26.57,0 -9.59,-1.179 -19.36,-7.726 -28.96,-9.66 -80.15,-16.078 -185.52,-26.34 -280.09,-28.968 -21.01,-0.59 -37.03,3.121 -50.7,-2.418 -10.52,-4.25 -14.04,-16.231 -26.56,-19.321 -9.15,21.528 -34.68,21.91 -50.71,7.25 -41.29,14.25 -91.52,19.547 -118.31,48.289 -23.15,-29.968 -48.12,-58.121 -60.36,-99 -30.22,-21.14 -50.17,-57.32 -86.93,-77.261 -8.97,-4.86 -21.68,-6.758 -31.39,-12.071 -34.26,-18.75 -94.24,-49.129 -159.36,-33.808 -18.233,4.3 -23.624,27.332 -41.042,31.402 -44.847,10.449 -95.304,23.93 -140.043,43.449 -55.437,24.199 -99.804,63.129 -144.867,82.09 -23.879,29.25 -64.375,41.879 -86.925,72.438 -5.688,-0.047 -7.11,4.171 -14.489,2.421 -29.281,39.15 -57.808,61.12 -84.504,98.99 -35.566,50.47 -69.726,114.69 -79.683,197.99 -3.574,29.94 -7.399,49.18 -9.657,77.27 -2.761,34.36 7.563,75.41 -26.558,79.68 -0.375,40.61 0.976,79.5 12.07,108.65 53.301,-8.02 24.395,53.33 31.391,89.34 9.976,4.51 28.695,0.27 33.805,9.66 3.558,12.24 -10.418,14.94 -4.833,21.73 31.426,-2.9 79.989,50.79 55.536,86.92 9.172,-1.29 13.386,-7.54 24.144,-7.24 27.34,5.34 15.414,36.4 12.074,50.7 7.61,9.97 15.196,-2.38 28.969,0 18.203,4.64 27.922,31.41 16.906,50.71 24.2,26.51 54.844,46.56 82.094,70.02 23.942,-15.65 45.996,2.51 60.363,16.9 4.707,13.66 -8.039,22.41 -2.414,28.97 15.184,7.38 10.653,-11.47 24.141,-12.07 22.906,15.73 50.109,27.16 55.539,60.36 6.668,2.99 12.266,7.05 21.727,7.25 11.824,2.15 6.519,-12.8 19.316,-9.66 34.82,8.64 38.945,47.98 74.855,55.53 10.458,0 6,-14.92 16.899,-14.48 19.891,1.03 25.601,16.25 28.976,33.8 42.98,18.19 95.91,26.42 137.63,45.88 14.63,3.36 11.06,-11.48 24.14,-9.66 41.32,0.53 38.5,45.2 84.51,41.04 10.11,-0.35 0.96,-19.96 9.66,-21.72 44.63,-6.82 41.66,33.98 77.26,36.21 10.28,2.23 0.16,-15.94 9.66,-14.49 15.82,13.16 32.11,25.84 65.19,21.74"
         style="fill:#000000;fill-opacity:1;fill-rule:evenodd;stroke:none"
         id="path16" />
    </g>
  </g>
</svg>
