<?xml version="1.0" encoding="UTF-8" standalone="no"?>
<!-- Created with Inkscape (http://www.inkscape.org/) -->

<svg
   version="1.1"
   id="svg2"
   width="415.41333"
   height="390.09332"
   viewBox="0 0 415.41333 390.09332"
   sodipodi:docname="ref-head.eps"
   xmlns:inkscape="http://www.inkscape.org/namespaces/inkscape"
   xmlns:sodipodi="http://sodipodi.sourceforge.net/DTD/sodipodi-0.dtd"
   xmlns="http://www.w3.org/2000/svg"
   xmlns:svg="http://www.w3.org/2000/svg">
  <defs
     id="defs6" />
  <sodipodi:namedview
     id="namedview4"
     pagecolor="#ffffff"
     bordercolor="#000000"
     borderopacity="0.25"
     inkscape:showpageshadow="2"
     inkscape:pageopacity="0.0"
     inkscape:pagecheckerboard="0"
     inkscape:deskcolor="#d1d1d1" />
  <g
     id="g8"
     inkscape:groupmode="layer"
     inkscape:label="ink_ext_XXXXXX"
     transform="matrix(1.3333333,0,0,-1.3333333,0,390.09333)">
    <g
       id="g10"
       transform="scale(0.1)">
      <path
         d="m 1455.39,2618.41 c -24.19,-93.11 73.54,-145.61 136.8,-122.41 34.08,12.5 58.93,50.36 62.4,84.01 7.67,74.29 -54.55,120.1 -117.6,110.4 -40.87,-6.3 -72.5,-36.96 -81.6,-72 z m 288,-321.61 c -21.57,-20.94 -40.67,-39.88 -69.6,-38.39 -43.1,2.22 -60.89,78.72 -93.59,91.2 -8.66,3.29 -80,12.28 -93.61,9.6 -31.08,-6.13 -57.74,-77 -96,-79.2 -21.64,-1.25 -66.54,34.26 -69.6,47.99 -9.49,42.56 36.22,80.89 36,117.6 -0.11,17.63 -12.5,27.05 -21.6,48.01 -6.46,14.87 -8.54,33.07 -16.8,40.8 -24.93,23.31 -104.4,11 -120,48 -9.37,22.23 3,69.34 9.6,76.8 11.11,12.54 33.82,16.12 50.4,19.2 17.7,3.28 41.67,-1.83 62.4,4.8 14.11,4.51 22.46,23.83 36,43.19 7.42,10.62 29.96,32.14 31.2,48.01 2.61,33.37 -33.23,73.85 -24,110.4 3.13,12.41 49.39,43.08 67.2,40.8 25.14,-3.23 38.5,-21.13 52.8,-38.41 13.85,-16.72 25.61,-47.73 48,-55.2 12.2,-4.06 29.96,-1.03 48.01,-2.39 14.18,-1.08 27,-8.42 43.19,-4.8 36.96,8.25 52.72,76.08 93.6,79.2 22.55,1.71 66.66,-34.53 69.6,-45.6 11.96,-45.03 -35.81,-83.54 -35.99,-120 -0.1,-17.97 12.71,-31.99 19.19,-45.61 7.72,-16.21 9.57,-33.24 19.2,-43.19 23.45,-24.22 104.04,-11.63 120,-48 7.02,-15.99 1.99,-66.82 -9.6,-79.2 -24.49,-26.18 -74.66,-10.27 -112.8,-24 -11.22,-4.05 -62.15,-67.13 -64.8,-86.41 -5.5,-39.95 26.57,-51.41 21.6,-115.2"
         style="fill:#000000;fill-opacity:1;fill-rule:evenodd;stroke:none"
         id="path12" />
      <path
         d="m 1467.39,2157.61 c -31.35,-3.43 -63.98,-18.06 -91.2,-14.4 -13.5,1.81 -26.54,17.79 -43.2,24 -17.52,6.52 -40.54,10.84 -57.6,9.59 -25.45,-1.86 -15.05,-52.35 -12,-62.39 C 955.742,2026.06 755.504,1830.29 629.789,1560 c -27.644,7.34 -77.312,15.15 -91.199,-9.6 -3.488,-58.68 32.914,-77.48 45.598,-119.99 -22.883,-79.36 -52.977,-184.79 -52.801,-283.21 0.183,-99.85 26.699,-194.72 52.801,-278.391 27.789,-89.09 61.246,-170.868 103.199,-240 -58.356,-14.969 -42.821,-128.36 -26.395,-177.61 15.375,-8.488 26.727,-29.328 47.996,-36 40.555,-12.711 98.45,3.5 141.602,0 79.449,-73.5 171.62,-132.719 278.4,-182.398 140.26,-65.25 307.45,-123.692 501.61,-105.602 130.04,12.11 250.24,53.242 352.79,100.813 74.71,34.629 148.67,79.41 211.2,127.187 19.58,14.961 45.87,45.699 64.8,50.403 39.5,9.828 92.07,-10.993 139.2,2.41 11.74,3.328 37.07,30.226 45.6,47.988 26.16,54.461 1.13,133.691 -21.6,163.211 105.3,177.301 192.99,422.499 144,683.989 -6.09,32.54 -29.61,90.19 -26.39,117.61 5.73,48.88 57.02,69.47 50.4,124.79 -15.03,30.43 -72.86,17.62 -103.21,9.6 -119.17,276.04 -328.74,461.66 -624,561.6 12.99,16.2 5.63,46.59 -7.2,57.61 -39.96,0.75 -65.3,-13.1 -91.2,-26.41 -78.67,15.58 -208.39,19.34 -297.6,9.61 z m 940.8,-235.21 c -1.83,-16.21 -23.53,-16.69 -28.8,-38.39 -9.42,-38.85 7.4,-102.28 36,-115.2 32.83,-14.84 66.13,-4.6 112.8,-9.6 10.85,-12.68 20.47,-24.09 28.8,-38.41 5.72,-9.8 19.63,-28.7 21.6,-43.2 4.14,-30.36 -15.1,-63.89 -7.19,-96 7.6,-30.9 41.99,-37.43 71.99,-50.4 66.54,-177.3 79.08,-403.05 43.2,-600.001 C 2652.28,742.781 2569.67,579.211 2475.39,456 2286.78,209.5 1988.06,0 1558.59,0 1340.65,0 1162.2,57.7813 1011.39,139.199 862.191,219.75 738.965,326.91 641.785,456 546.996,581.922 467.797,740.75 430.59,931.199 c -38.235,195.721 -22.399,424.271 43.199,600.001 27.844,11.36 56.992,21.41 69.602,48.01 1.136,35.53 -0.786,68.01 -7.2,95.99 17.266,27.54 30.098,59.5 50.403,84.01 42.894,2.87 80.808,-2.62 110.394,9.6 43.594,17.98 57.563,127.8 9.606,148.79 129.027,144.44 303.326,268.98 525.596,333.6 32.18,9.36 72.92,25.74 98.4,24 24.36,-1.65 32.88,-26.03 72,-19.2 23.01,4.03 34.16,31.93 55.2,38.41 20.8,6.4 102.13,9.16 127.2,2.39 25.65,-6.92 37.83,-54.87 72,-62.39 49.32,-10.87 82.42,24.25 110.4,43.2 279.9,-52.11 480.21,-183.81 640.8,-355.21"
         style="fill:#000000;fill-opacity:1;fill-rule:evenodd;stroke:none"
         id="path14" />
      <path
         d="m 260.191,1862.4 c 15.344,-42.78 67.243,-74.45 120,-64.8 40.043,7.33 72.844,50.52 76.797,88.8 7.364,71.36 -52.965,120.62 -117.597,110.4 -61.075,-9.65 -100.551,-74.89 -79.2,-134.4 z m 331.196,76.81 c 30.801,-30.01 94.429,-27.18 120,-62.41 -3.711,-30.08 0.261,-64.35 -16.797,-79.2 -28.785,-25.04 -83.852,-4.34 -117.602,-14.39 -14.425,-4.3 -24.746,-24.56 -38.398,-40.81 -10.469,-12.46 -31.262,-25.45 -33.602,-43.19 -4.73,-35.83 30.18,-70.15 12,-112.81 -4.968,-11.66 -45.933,-33.38 -69.601,-31.2 -21.375,1.97 -37.231,25.89 -50.399,45.6 -11.925,17.86 -19.105,46.15 -38.398,55.2 -9.445,4.44 -31.36,4.58 -45.602,7.21 -13.894,2.56 -29.675,10.85 -43.199,9.6 -35.348,-3.29 -60.496,-68.92 -103.203,-69.6 -22.211,-0.37 -65.234,35.08 -67.1954,55.2 -1.9531,20 14.4104,45.7 21.5934,60 8.079,16.06 25.27,28.25 26.403,52.79 0.965,20.82 -10.996,29.01 -16.801,45.6 -5.426,15.53 -4.203,31.96 -9.602,40.8 -18.269,29.99 -109.6129,25.3 -119.999625,64.8 -3.984375,15.17 4.625005,63.23 16.804725,74.4 29.6679,27.24 71.9765,3.76 115.1989,14.4 14.391,3.55 25.492,20.04 40.801,38.41 12.27,14.73 30.883,27.73 33.598,45.59 5.242,34.48 -21.567,52.01 -14.399,110.4 19.805,22.4 46.809,36.83 69.602,36.01 48.793,-1.75 58.129,-92.63 96,-103.2 10.055,-2.81 26.652,-2.36 40.801,-4.8 19.672,-3.41 32.605,-11.34 45.597,-9.6 36.555,4.88 58.313,68.4 100.805,69.6 22.605,0.62 64.871,-34.22 67.195,-55.2 4.309,-38.83 -46.949,-78.97 -48,-115.2 -0.988,-34.02 27.641,-45.72 26.399,-84"
         style="fill:#000000;fill-opacity:1;fill-rule:evenodd;stroke:none"
         id="path16" />
      <path
         d="m 2686.59,1970.4 c -50.44,-48.52 -28.31,-158.83 48,-172.8 53.2,-9.74 104.19,20.73 120,64.8 27.34,76.22 -39.99,144.74 -110.4,134.4 -23.73,-3.48 -44.11,-13.42 -57.6,-26.4 z m 235.21,235.2 c 7.96,-44.67 -18.06,-75.62 -14.41,-107.99 3.67,-32.54 55.11,-62.41 72,-86.41 36.82,-5.12 91.64,9.44 117.6,-14.4 11.24,-10.31 23.2,-50.05 16.81,-74.4 -10.85,-41.25 -93.33,-28.75 -117.61,-62.4 -6.91,-9.58 -7.07,-29.09 -12,-43.2 -5.15,-14.73 -16.91,-24.15 -16.8,-43.19 0.15,-23.69 17.68,-37.85 26.41,-55.2 6.33,-12.61 23.55,-39.91 21.59,-60 -0.98,-10.08 -39.31,-54.45 -64.79,-55.2 -44.53,-1.33 -66.07,64.72 -103.21,69.6 -15.16,1.99 -27.26,-6.94 -40.8,-9.6 -17.77,-3.52 -37.84,-2.86 -48,-7.21 -34.68,-14.85 -45.71,-95.14 -88.8,-100.8 -24.14,-3.16 -66.92,19.28 -72,31.2 -17.03,39.97 14.64,82.37 12,110.4 -1.91,20.38 -23.27,33.3 -33.6,45.6 -11.38,13.55 -24.54,36.86 -35.99,40.81 -32.42,11.15 -90.11,-11.61 -120,14.39 -18.66,16.23 -12.32,50.37 -16.81,79.2 27.19,42.95 94.16,25.86 117.61,60 7.08,10.32 6.29,27.81 12,43.21 5.89,15.92 16.64,25.33 16.79,40.79 0.41,39.86 -50.67,74.99 -47.99,115.2 1.73,26.12 47.45,57.32 64.79,57.61 42.53,0.7 65.98,-63.27 100.8,-69.6 15.93,-2.9 31.2,7 45.61,9.6 14.04,2.53 29.77,0.98 40.79,4.8 45.32,15.67 49.54,97.91 93.6,103.2 24.24,2.9 54.13,-13.28 74.41,-36.01"
         style="fill:#000000;fill-opacity:1;fill-rule:evenodd;stroke:none"
         id="path18" />
      <path
         d="m 1522.59,1684.8 c -3.69,-48.92 10.08,-100 40.8,-122.4 18.85,32.51 38.26,71.26 31.2,122.4 -14.01,14.69 -59.38,17.12 -72,0 z m 86.4,129.6 c 0,-8.8 0,-17.6 0,-26.39 59.2,0 118.4,0 177.6,0 0,8.79 0,17.59 0,26.39 -59.2,0 -118.4,0 -177.6,0 z m 40.8,72 c -15.41,-9.89 -40.95,-16.71 -43.2,-38.39 38.99,12.21 79.42,22.98 112.8,40.8 -7.54,9.25 -7.54,26.05 -16.8,33.59 -15.97,-12.46 -34.61,-24.32 -52.8,-36 z m -314.4,26.41 c -63.92,-77.64 19,-208.69 122.4,-163.2 101.06,44.44 60.92,211.11 -55.2,196.79 -29.88,-3.68 -53.08,-16.45 -67.2,-33.59 z m 511.2,242.39 c -0.88,-10.97 3.6,-12.99 0,-24 -2.72,-8.36 -11.63,-14.34 -14.4,-23.99 -2.66,-9.28 -0.59,-22.72 -2.4,-36.01 -3.35,-24.65 -14.19,-51.02 -12,-69.59 2.84,-24.08 25.31,-48.67 33.61,-76.81 25.89,-87.88 16.08,-190.74 4.79,-295.2 30.92,-29.35 56,-63.19 88.8,-96 40.69,-40.69 73.71,-79.89 153.6,-72 118.84,11.74 252.14,40.99 360,67.21 37.6,9.13 78.62,24.04 112.81,9.6 -29.04,-73.26 -70.93,-141.58 -110.4,-208.8 -19.58,-33.33 -38.07,-69.51 -60,-100.8 -21.41,-30.54 -44.39,-64.09 -69.6,-88.8 -40.86,-40.05 -94.13,-66.33 -146.41,-93.61 -51.53,-26.89 -106.7,-53.548 -168,-69.599 -25.66,-120.731 -57.47,-235.332 -95.99,-343.199 -39.09,-8.954 -92.38,4.507 -98.41,-40.801 -5.75,61.461 -89.88,58.097 -91.19,-2.403 -25.06,-8.238 -16.85,16.762 -24.01,26.403 -1.82,10.168 -11.19,12.82 -16.79,19.199 -40.17,4.961 -61.04,-9.359 -60,-45.602 -31.85,5.024 -78.3,-0.839 -120.01,0 0.21,32.911 -24.53,50.961 -55.2,43.204 -20.4,-5.161 -22.3,-27.532 -31.2,-43.204 -29.29,-8.636 -14.17,27.872 -36,38.411 -32.79,15.82 -63.45,-4.719 -64.8,-38.411 -12.8,0 -25.6,0 -38.4,0 -8.23,29.372 -28.83,46.372 -64.8,48.012 -42.52,100.66 -74.38,212.012 -96,333.59 -62.58,20.738 -119.27,48.68 -175.202,76.81 -54.316,27.3 -112.09,53.19 -153.597,95.99 -50.828,52.42 -90.707,122.19 -129.598,187.2 -19.855,33.18 -36.676,68.28 -55.203,103.2 -18.192,34.3 -44.684,66.58 -52.801,105.6 39.863,10.49 85.691,-1.65 127.199,-11.99 39.696,-9.9 78.332,-24.08 120,-31.21 41.59,-7.11 88.774,-12.52 134.403,-19.19 66.499,-9.74 129.199,-27.55 179.999,0 62.07,33.65 101.92,109 153.6,153.59 -16.92,98.29 -19.13,225.82 12,312.01 6.03,16.68 20.5,35.16 24,52.79 2.9,14.65 -1.34,36.49 -4.8,55.2 -3.55,19.23 -3.95,38.46 -7.2,52.8 -4.44,19.58 -24.43,31.35 -16.8,48 0.85,2.76 4.22,6.09 4.8,2.4 68,4.55 100.36,-71.15 153.6,-84 25.58,-6.16 64.32,9.38 98.4,12.01 53.19,4.09 104.64,-21.13 148.8,-14.41 51.79,7.89 92.32,91.74 160.8,86.4"
         style="fill:#000000;fill-opacity:1;fill-rule:evenodd;stroke:none"
         id="path20" />
      <path
         d="m 1409.79,1893.61 c 75.81,9.83 72.17,-102.11 7.2,-103.21 -60.46,-1.02 -74.97,94.41 -7.2,103.21"
         style="fill:#000000;fill-opacity:1;fill-rule:evenodd;stroke:none"
         id="path22" />
      <path
         d="m 857.789,612 c 67.106,-2.441 123.859,0.191 187.201,-2.398 41.86,-1.711 88.66,-10.75 117.6,-4.801 11.28,2.32 14.33,11.379 24,14.41 37.06,-1.34 71.96,-4.852 67.2,-48.012 21.63,-3.14 34.59,-0.699 64.8,-2.39 4.67,-32.137 22.07,-64.321 33.6,-81.61 -41.85,1.332 -59,1.582 -93.6,2.403 -4.15,-12.653 -6.41,-27.192 -12,-38.403 -29.3,-5.418 -62.32,-3.699 -79.2,14.403 -83.49,-3.161 -189.538,-10.082 -256.8,-12 -33.969,-0.973 -59.047,7.277 -69.598,-21.602 -35.168,8.359 -90.207,-7.98 -120,0 -16.488,4.41 -23.543,22.609 -38.402,26.41 -19.543,36.61 -21.738,102.328 -4.801,143.988 18.719,-0.957 30.27,21.442 52.801,26.411 22.918,5.043 79,3.941 103.199,7.191 10.504,1.41 23.106,-16.16 24,-24"
         style="fill:#000000;fill-opacity:1;fill-rule:evenodd;stroke:none"
         id="path24" />
      <path
         d="m 1865.79,446.398 c -9.27,7.532 -13.33,20.282 -14.39,36 -60.04,5.543 -110.09,2.372 -165.61,7.204 -3.31,8.796 13.11,22.839 19.2,38.41 5.45,13.898 6.68,28.949 9.6,43.187 9.6,0 19.2,0 28.8,0 8.1,-32.699 18.49,-63.117 40.8,-81.597 23.7,16.296 32.34,47.66 38.4,81.597 8.01,0 16,0 24,0 8.52,11.492 6.98,33.02 21.6,38.403 19.79,-5.211 43.32,-6.731 57.6,4.796 9.73,-3.066 9.71,-15.886 16.8,-21.597 95.15,-2.602 185.21,10.199 266.4,14.398 23.76,1.242 41.62,-2.129 52.81,14.403 8.03,3.339 21.1,-3.641 33.59,-4.801 32.09,-2.961 70.44,9.469 88.8,4.801 39.43,-10.02 62.74,-105.782 40.8,-153.59 -7.76,-16.942 -22.42,-28.242 -33.59,-40.813 -41.15,4.832 -107.81,-16.508 -136.81,9.602 -100.24,2.59 -202.18,12.051 -307.2,16.801 -21.26,-16.582 -46.98,-3.973 -81.6,-7.204"
         style="fill:#000000;fill-opacity:1;fill-rule:evenodd;stroke:none"
         id="path26" />
      <path
         d="m 1635.39,571.199 c 4.7,-32.91 23.44,-64.551 36.01,-81.597 -67.85,-0.332 -133.89,-7.582 -196.81,-2.403 16.45,22.75 26.77,51.641 33.6,84 30.28,-1.539 83.2,0.981 127.2,0"
         style="fill:#000000;fill-opacity:1;fill-rule:evenodd;stroke:none"
         id="path28" />
      <path
         d="m 1426.59,568.809 c 3.06,-33.758 23.29,-63.11 33.6,-81.61 -30.4,0 -60.8,0 -91.2,0 14.68,22.91 24.66,50.539 31.2,81.61 8.8,0 17.6,0 26.4,0"
         style="fill:#000000;fill-opacity:1;fill-rule:evenodd;stroke:none"
         id="path30" />
      <path
         d="m 1284.99,475.199 c 187.61,-8.109 354.88,4.031 540,-4.801 3.21,-10.386 4.2,-23 14.4,-26.398 -40.9,-83.898 -79.78,-169.82 -132,-242.398 -91.2,0 -182.4,0 -273.6,0 -52.07,88.726 -101.57,180.039 -148.8,273.597"
         style="fill:#000000;fill-opacity:1;fill-rule:evenodd;stroke:none"
         id="path32" />
    </g>
  </g>
</svg>
