<?xml version="1.0" encoding="UTF-8" standalone="no"?>
<!-- Created with Inkscape (http://www.inkscape.org/) -->

<svg
   version="1.1"
   id="svg2"
   width="415.41333"
   height="306.49332"
   viewBox="0 0 415.41333 306.49332"
   sodipodi:docname="ref-line.eps"
   xmlns:inkscape="http://www.inkscape.org/namespaces/inkscape"
   xmlns:sodipodi="http://sodipodi.sourceforge.net/DTD/sodipodi-0.dtd"
   xmlns="http://www.w3.org/2000/svg"
   xmlns:svg="http://www.w3.org/2000/svg">
  <defs
     id="defs6" />
  <sodipodi:namedview
     id="namedview4"
     pagecolor="#ffffff"
     bordercolor="#000000"
     borderopacity="0.25"
     inkscape:showpageshadow="2"
     inkscape:pageopacity="0.0"
     inkscape:pagecheckerboard="0"
     inkscape:deskcolor="#d1d1d1" />
  <g
     id="g8"
     inkscape:groupmode="layer"
     inkscape:label="ink_ext_XXXXXX"
     transform="matrix(1.3333333,0,0,-1.3333333,0,306.49333)">
    <g
       id="g10"
       transform="scale(0.1)">
      <path
         d="m 1467.39,2157.61 c -31.35,-3.42 -63.99,-18.06 -91.2,-14.4 -13.5,1.81 -26.55,17.79 -43.2,24 -17.52,6.52 -40.54,10.85 -57.6,9.59 -25.45,-1.86 -15.05,-52.35 -12,-62.39 -307.652,-88.35 -507.894,-284.12 -633.605,-554.4 -27.64,7.33 -77.312,15.14 -91.199,-9.61 -3.488,-58.68 32.918,-77.47 45.598,-120 -22.883,-79.35 -52.977,-184.78 -52.797,-283.19 0.179,-99.86 26.699,-194.73 52.797,-278.401 27.789,-89.079 61.25,-170.868 103.203,-240 -58.356,-14.969 -42.821,-128.36 -26.403,-177.61 15.379,-8.488 26.731,-29.328 48,-36 40.551,-12.711 98.45,3.5 141.602,0 79.449,-73.5 171.614,-132.719 278.404,-182.398 140.25,-65.25 307.44,-123.692 501.6,-105.59 130.06,12.109 250.24,53.23 352.79,100.801 74.71,34.648 148.69,79.41 211.2,127.187 19.59,14.973 45.88,45.699 64.81,50.403 39.5,9.828 92.06,-10.993 139.2,2.41 11.74,3.328 37.07,30.226 45.59,47.988 26.18,54.461 1.14,133.691 -21.59,163.211 105.3,177.301 192.98,422.499 144,683.999 -6.1,32.54 -29.61,90.18 -26.4,117.59 5.73,48.89 57.02,69.48 50.4,124.81 -15.03,30.43 -72.84,17.61 -103.2,9.59 -119.16,276.04 -328.74,461.66 -624.01,561.6 12.99,16.21 5.64,46.6 -7.19,57.61 -39.96,0.75 -65.31,-13.1 -91.2,-26.4 -78.68,15.57 -208.39,19.33 -297.6,9.6 z m 940.8,-235.2 c -3.32,-16 -24.08,-18.12 -28.8,-40.8 -8.15,-39.2 7.21,-99.79 36,-112.8 32.83,-14.83 66.13,-4.6 112.8,-9.6 10.85,-12.68 20.47,-24.09 28.8,-38.41 5.71,-9.8 19.63,-28.7 21.6,-43.19 4.14,-30.36 -15.1,-63.9 -7.2,-96 7.61,-30.91 41.99,-37.43 72,-50.41 66.54,-177.29 79.08,-403.04 43.2,-599.989 C 2652.27,742.789 2569.66,579.211 2475.39,456 2286.77,209.512 1988.06,0 1558.59,0 1340.64,0 1162.2,57.7813 1011.39,139.211 862.188,219.75 738.961,326.922 641.785,456 546.992,581.922 467.793,740.75 430.586,931.211 c -38.238,195.709 -22.398,424.259 43.199,599.989 27.848,11.36 56.996,21.41 69.598,48.01 1.144,35.54 -0.781,68.02 -7.195,95.99 17.265,27.54 30.101,59.51 50.398,84.01 45.492,3.85 77.23,-4.09 110.402,9.6 45.75,18.87 56.571,124.61 9.598,148.8 180.156,192.37 429.094,360.42 782.404,379.19 430.19,22.87 713.32,-163.64 919.2,-374.39"
         style="fill:#000000;fill-opacity:1;fill-rule:evenodd;stroke:none"
         id="path12" />
      <path
         d="m 260.188,1862.41 c 15.347,-42.79 67.238,-74.46 120,-64.8 40.042,7.33 72.847,50.52 76.8,88.8 7.36,71.35 -52.968,120.61 -117.601,110.39 -61.074,-9.65 -100.555,-74.89 -79.199,-134.39 z m 331.199,76.8 c 30.797,-30.01 94.426,-27.18 120,-62.41 -3.715,-30.08 0.261,-64.35 -16.801,-79.19 -28.785,-25.05 -83.856,-4.35 -117.598,-14.4 -14.425,-4.3 -24.754,-24.55 -38.402,-40.8 -10.473,-12.46 -31.258,-25.46 -33.602,-43.2 -4.726,-35.83 30.176,-70.15 12.004,-112.8 -4.972,-11.66 -45.937,-33.38 -69.601,-31.21 -21.375,1.97 -37.235,25.89 -50.399,45.6 -11.925,17.86 -19.113,46.15 -38.402,55.2 -9.445,4.44 -31.359,4.58 -45.602,7.21 -13.89,2.56 -29.679,10.85 -43.199,9.6 -35.347,-3.29 -60.5,-68.91 -103.199,-69.6 -22.215,-0.36 -65.238,35.08 -67.1993,55.2 -1.957,20 14.4143,45.7 21.5973,60 8.079,16.06 25.266,28.25 26.399,52.79 0.969,20.82 -10.996,29.01 -16.797,45.6 -5.426,15.53 -4.207,31.96 -9.602,40.81 -18.273,29.98 -109.6168,25.29 -119.999625,64.8 C -3,1937.57 5.60938,1985.63 17.7813,1996.8 c 29.6718,27.24 71.9843,3.77 115.2027,14.4 14.395,3.55 25.493,20.04 40.801,38.41 12.274,14.73 30.883,27.73 33.602,45.6 5.234,34.47 -21.567,52 -14.403,110.4 19.805,22.39 46.805,36.82 69.598,36 48.797,-1.75 58.137,-92.63 96.004,-103.2 10.051,-2.81 26.652,-2.36 40.801,-4.8 19.672,-3.41 32.609,-11.34 45.597,-9.6 36.555,4.88 58.313,68.41 100.801,69.6 22.61,0.63 64.875,-34.22 67.199,-55.2 4.305,-38.83 -46.945,-78.97 -48,-115.2 -0.984,-34.02 27.637,-45.72 26.403,-84"
         style="fill:#000000;fill-opacity:1;fill-rule:evenodd;stroke:none"
         id="path14" />
      <path
         d="m 2686.59,1970.41 c -50.44,-48.53 -28.31,-158.84 48,-172.8 53.2,-9.74 104.18,20.72 120,64.8 27.35,76.21 -40,144.73 -110.4,134.39 -23.74,-3.48 -44.12,-13.42 -57.6,-26.39 z m 235.2,235.2 c 7.96,-44.67 -18.05,-75.62 -14.4,-108 3.67,-32.53 55.11,-62.41 72,-86.41 36.82,-5.12 91.64,9.44 117.6,-14.4 11.24,-10.31 23.2,-50.05 16.8,-74.39 -10.84,-41.26 -93.32,-28.75 -117.6,-62.4 -6.92,-9.58 -7.07,-29.1 -12,-43.21 -5.15,-14.73 -16.92,-24.14 -16.8,-43.19 0.14,-23.68 17.67,-37.84 26.4,-55.2 6.33,-12.61 23.56,-39.91 21.61,-60 -0.99,-10.07 -39.32,-54.45 -64.81,-55.2 -44.52,-1.33 -66.06,64.72 -103.2,69.6 -15.16,1.99 -27.27,-6.93 -40.8,-9.6 -17.78,-3.51 -37.84,-2.85 -48,-7.21 -34.69,-14.84 -45.71,-95.14 -88.8,-100.8 -24.13,-3.16 -66.92,19.28 -72,31.21 -17.03,39.97 14.64,82.36 12,110.39 -1.91,20.38 -23.26,33.31 -33.6,45.61 -11.38,13.55 -24.54,36.85 -36,40.8 -32.41,11.15 -90.11,-11.61 -120,14.4 -18.65,16.23 -12.31,50.36 -16.8,79.19 27.18,42.95 94.15,25.86 117.6,60 7.08,10.33 6.3,27.81 12,43.21 5.89,15.93 16.64,25.33 16.8,40.8 0.4,39.85 -50.67,74.99 -48,115.19 1.73,26.12 47.45,57.32 64.8,57.61 42.54,0.7 65.97,-63.26 100.8,-69.6 15.93,-2.9 31.2,7 45.6,9.6 14.06,2.53 29.78,0.99 40.8,4.8 45.32,15.68 49.54,97.92 93.6,103.2 24.24,2.9 54.13,-13.28 74.4,-36"
         style="fill:#000000;fill-opacity:1;fill-rule:evenodd;stroke:none"
         id="path16" />
      <path
         d="m 1522.59,1684.8 c -3.69,-48.92 10.07,-100 40.8,-122.39 18.84,32.5 38.27,71.26 31.19,122.39 -14,14.7 -59.38,17.12 -71.99,0 z m 86.4,129.61 c 0,-8.8 0,-17.61 0,-26.4 59.2,0 118.4,0 177.6,0 0,8.79 0,17.6 0,26.4 -59.2,0 -118.4,0 -177.6,0 z m 40.8,72 c -15.42,-9.9 -40.96,-16.71 -43.2,-38.4 38.98,12.21 79.41,22.98 112.8,40.8 -7.55,9.25 -7.55,26.05 -16.81,33.6 -15.95,-12.46 -34.61,-24.32 -52.79,-36 z m -314.4,26.4 c -63.92,-77.63 19,-208.68 122.4,-163.2 101.05,44.45 60.92,211.11 -55.2,196.8 -29.88,-3.69 -53.08,-16.45 -67.2,-33.6 z m 511.2,242.4 c -0.88,-10.98 3.59,-13 0,-24 -2.73,-8.36 -11.63,-14.35 -14.4,-24 -2.65,-9.28 -0.59,-22.72 -2.4,-36 -3.36,-24.65 -14.2,-51.03 -12,-69.6 2.84,-24.08 25.31,-48.67 33.6,-76.8 25.9,-87.89 16.09,-190.74 4.8,-295.2 30.91,-29.36 55.99,-63.2 88.8,-96 40.69,-40.7 73.71,-79.9 153.6,-72 118.84,11.73 252.14,40.98 360,67.2 37.6,9.13 78.62,24.05 112.8,9.6 -29.03,-73.25 -70.92,-141.57 -110.4,-208.8 -19.56,-33.31 -38.03,-69.45 -60,-100.8 -21.41,-30.54 -44.38,-64.08 -69.6,-88.81 -40.86,-40.04 -94.13,-66.32 -146.4,-93.59 -51.57,-26.92 -106.68,-53.551 -168,-69.601 -25.67,-120.739 -57.47,-235.34 -96,-343.207 -39.08,-8.954 -92.37,4.507 -98.41,-40.801 -5.74,61.461 -89.87,58.097 -91.19,-2.391 -25.05,-8.25 -16.84,16.75 -24,26.399 -1.83,10.16 -11.19,12.812 -16.8,19.191 -40.17,4.969 -61.03,-9.359 -60,-45.59 -31.84,5.012 -78.3,-0.851 -120,0 0.21,32.899 -24.53,50.961 -55.2,43.192 -20.4,-5.161 -22.3,-27.532 -31.2,-43.192 -29.3,-8.64 -14.18,27.86 -36,38.399 -32.79,15.82 -63.46,-4.719 -64.8,-38.399 -12.8,0 -25.6,0 -38.4,0 -8.23,29.36 -28.84,46.36 -64.8,48 -42.53,100.668 -74.39,212.012 -96.01,333.59 -62.57,20.738 -119.27,48.68 -175.196,76.81 -54.312,27.3 -112.089,53.19 -153.597,95.99 -50.832,52.43 -90.703,122.2 -129.602,187.21 -19.847,33.17 -36.676,68.27 -55.199,103.19 -18.219,34.35 -44.668,66.56 -52.797,105.6 39.863,10.49 85.691,-1.65 127.195,-11.99 39.7,-9.9 78.332,-24.08 120,-31.2 41.586,-7.12 88.77,-12.52 134.403,-19.2 66.503,-9.74 129.193,-27.55 179.993,0 62.08,33.66 101.92,109 153.61,153.6 -16.93,98.28 -19.13,225.81 12,312 6.02,16.68 20.5,35.16 24,52.79 2.9,14.65 -1.35,36.49 -4.81,55.21 -3.54,19.22 -3.94,38.45 -7.19,52.8 -4.44,19.57 -24.44,31.34 -16.8,48 0.85,2.75 4.22,6.08 4.8,2.4 68,4.54 100.36,-71.16 153.6,-84 25.58,-6.17 64.32,9.37 98.4,12 53.18,4.09 104.64,-21.12 148.8,-14.4 51.78,7.88 92.31,91.73 160.8,86.4"
         style="fill:#000000;fill-opacity:1;fill-rule:evenodd;stroke:none"
         id="path18" />
      <path
         d="m 1409.79,1893.61 c 75.81,9.83 72.16,-102.11 7.2,-103.2 -60.47,-1.03 -74.98,94.4 -7.2,103.2"
         style="fill:#000000;fill-opacity:1;fill-rule:evenodd;stroke:none"
         id="path20" />
      <path
         d="m 857.789,612 c 67.098,-2.43 123.856,0.199 187.201,-2.391 41.86,-1.718 88.65,-10.75 117.6,-4.808 11.27,2.328 14.32,11.379 24,14.41 37.06,-1.34 71.95,-4.852 67.2,-48.012 21.63,-3.129 34.59,-0.699 64.8,-2.39 4.67,-32.137 22.07,-64.321 33.6,-81.598 -41.86,1.32 -59,1.57 -93.6,2.398 -4.15,-12.66 -6.41,-27.199 -12,-38.41 -29.3,-5.418 -62.32,-3.699 -79.2,14.403 -83.49,-3.161 -189.542,-10.082 -256.804,-12 -33.969,-0.961 -59.047,7.277 -69.602,-21.602 -35.16,8.359 -90.199,-7.98 -120,0 -16.48,4.422 -23.539,22.609 -38.394,26.41 -19.547,36.61 -21.746,102.328 -4.801,143.988 18.715,-0.957 30.262,21.454 52.797,26.411 22.914,5.043 79,3.941 103.199,7.191 10.508,1.41 23.106,-16.16 24.004,-24"
         style="fill:#000000;fill-opacity:1;fill-rule:evenodd;stroke:none"
         id="path22" />
      <path
         d="m 1865.79,446.41 c -9.27,7.52 -13.33,20.27 -14.4,35.988 -60.04,5.543 -110.09,2.372 -165.6,7.211 -3.31,8.789 13.1,22.832 19.2,38.403 5.44,13.898 6.68,28.949 9.59,43.187 9.6,0 19.2,0 28.8,0 8.11,-32.687 18.49,-63.121 40.8,-81.59 23.72,16.289 32.35,47.653 38.4,81.59 8.01,0 16.01,0 24.01,0 8.51,11.492 6.98,33.031 21.6,38.41 19.78,-5.218 43.32,-6.738 57.6,4.789 9.72,-3.07 9.71,-15.886 16.8,-21.597 95.1,-2.602 185.21,10.199 266.4,14.41 23.76,1.23 41.61,-2.141 52.8,14.391 8.04,3.339 21.11,-3.641 33.6,-4.793 32.09,-2.969 70.44,9.461 88.79,4.793 39.44,-10.012 62.75,-105.782 40.81,-153.59 -7.77,-16.942 -22.43,-28.231 -33.6,-40.801 -41.14,4.82 -107.8,-16.52 -136.81,9.598 -100.24,2.582 -202.17,12.043 -307.19,16.793 -21.26,-16.582 -46.98,-3.973 -81.6,-7.192"
         style="fill:#000000;fill-opacity:1;fill-rule:evenodd;stroke:none"
         id="path24" />
      <path
         d="m 1635.39,571.199 c 4.69,-32.91 23.43,-64.551 36,-81.59 -67.84,-0.328 -133.89,-7.589 -196.81,-2.398 16.46,22.738 26.77,51.629 33.61,83.988 30.28,-1.539 83.19,0.992 127.2,0"
         style="fill:#000000;fill-opacity:1;fill-rule:evenodd;stroke:none"
         id="path26" />
      <path
         d="m 1426.59,568.809 c 3.05,-33.758 23.29,-63.11 33.6,-81.598 -30.4,0 -60.8,0 -91.2,0 14.68,22.918 24.65,50.539 31.2,81.598 8.8,0 17.6,0 26.4,0"
         style="fill:#000000;fill-opacity:1;fill-rule:evenodd;stroke:none"
         id="path28" />
      <path
         d="m 1284.99,475.199 c 187.61,-8.109 354.88,4.031 540,-4.801 3.21,-10.378 4.19,-23 14.4,-26.398 -40.91,-83.891 -79.78,-169.82 -132,-242.398 -91.2,0 -182.4,0 -273.6,0 -52.07,88.726 -101.57,180.039 -148.8,273.597"
         style="fill:#000000;fill-opacity:1;fill-rule:evenodd;stroke:none"
         id="path30" />
    </g>
  </g>
</svg>
