<?xml version="1.0" encoding="UTF-8"?>
<svg id="Layer_1" xmlns="http://www.w3.org/2000/svg" version="1.1" viewBox="0 0 33.77 27.77">
  <!-- Generator: Adobe Illustrator 30.5.1, SVG Export Plug-In . SVG Version: 2.1.4 Build 3)  -->
  <defs>
    <style>
      .st0 {
        fill: #fff;
      }
    </style>
  </defs>
  <path class="st0" d="M33.52,4.44c-.4-.44-.91-.64-1.38-.82-1.05-.41-2.1-.84-3.16-1.26-1.29-.52-2.58-1.04-3.88-1.54-.21-.08-.42-.17-.62-.25-.42-.17-.83-.34-1.27-.48-.67-.21-1.3-.02-1.73.54-.37.47-.8.88-1.32,1.23-.97.67-2.05,1-3.2,1h-.01c-1.8,0-3.21-.61-4.31-1.84-.07-.08-.14-.15-.21-.22l-.09-.09c-.74-.77-1.24-.88-2.25-.47-1.18.47-2.36.94-3.54,1.41-1.74.69-3.48,1.39-5.21,2.09-.34.14-.74.33-1.07.69C.09,4.62,0,4.87,0,5.12c-.03.74.24,1.37.45,1.87.05.12.1.23.14.34l.62,1.58c.31.79.62,1.57.92,2.36.38.99.86,1.32,1.93,1.32h.86c.64,0,1.27,0,1.91,0,0,3.3,0,6.59,0,9.89v3.38c0,.06,0,.13,0,.19.05,1.16.63,1.72,1.79,1.72h4.33c4.04,0,8.08,0,12.13,0,.32,0,.57-.07.78-.12l.14-.04c.28-.07.52-.25.66-.51.27-.52.27-1.04.26-1.43v-13.08c.93-.02,1.87-.01,2.8,0,.88,0,1.49-.4,1.83-1.22.37-.92.73-1.84,1.08-2.76.32-.84.64-1.67.98-2.5.12-.29.13-.56.14-.76v-.14c.04-.28-.05-.56-.24-.77ZM22.87,2.08c.12.04.24.09.35.14v23.55c-.78,0-1.55,0-2.33,0V3.73c.13-.08.26-.14.39-.23.61-.41,1.13-.88,1.58-1.42ZM18.05,4.78v20.99c-.78,0-1.55,0-2.33,0V4.76c.39.05.8.09,1.22.09.38,0,.75-.02,1.11-.07ZM10.88,2.07s.01.01.02.02l.14.14s.08.07.11.11c.52.58,1.1,1.06,1.73,1.44v21.99h-2.33V2.2c.1-.04.19-.08.29-.11.01,0,.03-.01.04-.02ZM2.3,6.2c-.09-.22-.18-.42-.23-.6,0,0,.02,0,.03-.01.15-.06.29-.12.44-.18v1.37l-.07-.17c-.05-.14-.11-.27-.17-.41ZM6.94,10.6c-.52,0-1.04,0-1.57,0v-6.32c.64-.26,1.28-.51,1.92-.77.14-.05.28-.11.41-.16v7.36c-.22-.06-.47-.1-.76-.1ZM26.78,10.6c-.27,0-.51.04-.71.09V3.36c.72.29,1.44.57,2.16.86.06.02.11.04.17.07v6.32c-.54,0-1.08,0-1.61,0ZM31.24,6.69v-1.28c.07.03.14.06.22.09.07.03.14.06.21.08-.15.37-.29.74-.43,1.11Z"/>
</svg>