<?xml version="1.0" encoding="UTF-8" standalone="no"?>
<!-- Created with Inkscape (http://www.inkscape.org/) -->

<svg
   version="1.1"
   id="svg2"
   width="1300"
   height="1301.3333"
   viewBox="0 0 1300 1301.3333"
   sodipodi:docname="shield.eps"
   xmlns:inkscape="http://www.inkscape.org/namespaces/inkscape"
   xmlns:sodipodi="http://sodipodi.sourceforge.net/DTD/sodipodi-0.dtd"
   xmlns="http://www.w3.org/2000/svg"
   xmlns:svg="http://www.w3.org/2000/svg">
  <defs
     id="defs6">
    <clipPath
       clipPathUnits="userSpaceOnUse"
       id="clipPath18">
      <path
         d="M 0,3.83984 H 9750 V 9753.8398 H 0 Z"
         id="path16" />
    </clipPath>
  </defs>
  <sodipodi:namedview
     id="namedview4"
     pagecolor="#ffffff"
     bordercolor="#000000"
     borderopacity="0.25"
     inkscape:showpageshadow="2"
     inkscape:pageopacity="0.0"
     inkscape:pagecheckerboard="0"
     inkscape:deskcolor="#d1d1d1" />
  <g
     id="g8"
     inkscape:groupmode="layer"
     inkscape:label="ink_ext_XXXXXX"
     transform="matrix(1.3333333,0,0,-1.3333333,0,1301.3333)">
    <g
       id="g10"
       transform="scale(0.1)">
      <g
         id="g12">
        <g
           id="g14"
           clip-path="url(#clipPath18)">
          <path
             d="M 4540.82,17.5508 C 2466.76,162.16 717.73,1597.24 169.262,3604.46 10.8594,4184.19 -37.6992,4814.03 29.2188,5420.56 220.199,7150.63 1336.02,8660.91 2933.59,9351.53 c 782.31,338.21 1632.86,466.02 2479.22,372.62 1629.77,-179.88 3068.75,-1178.94 3807.58,-2643.59 301.45,-597.58 470.2,-1214.57 516.33,-1887.97 16.8,-245.31 8.59,-590.2 -20.31,-852.03 C 9536.52,2710.79 8537.46,1271.85 7072.81,533.02 6475.23,231.57 5858.2,62.8203 5184.8,16.6914 5049.38,7.39063 4679.22,7.89844 4540.82,17.5508 Z M 5084.8,545.172 c 200.51,18.078 421.41,54.797 664.03,110.308 422.03,96.598 920.12,294.18 1304.88,517.65 l 24.88,14.46 65.39,-41.53 65.36,-41.48 h 197.57 l 106.96,47.42 c 154.22,68.4 247.46,139.26 345.9,262.85 77.96,97.97 101.25,139.96 117.26,211.57 12.23,54.61 7.27,162.65 -8.91,194.41 l -12.34,24.3 99.57,115.7 c 268.83,312.46 540,726.99 695.04,1062.58 235.12,508.9 358.28,919.22 433.71,1445.15 36.56,254.89 43.91,431.61 25.59,616.02 -52.15,525.39 -191.84,1059.88 -395.31,1512.5 -70.94,157.77 -93.33,203.79 -157.7,324.26 -168.01,314.18 -372.46,613.01 -601.64,879.22 -111.99,130.11 -170.43,187.3 -312.34,305.5 -671.57,559.34 -1477.54,928.25 -2329.89,1066.37 -450.58,73.01 -629.41,73.01 -1080,0 -566.56,-91.83 -1138.51,-294.88 -1629.92,-578.67 -72.77,-42.03 -86.33,-42.27 -128.71,-2.46 -28.91,27.15 -86.8,41.29 -169.14,41.29 h -73.2 l -44.61,-46.84 c -24.5,-25.78 -67.5,-64.14 -95.51,-85.27 -67.46,-50.9 -110.9,-92.58 -110.9,-106.37 0,-6.13 -16.09,-29.1 -35.74,-50.94 -39.53,-43.98 -43.6,-57.46 -51.17,-170.62 l -5.08,-75.74 -88.01,-78.4 C 1720.98,7858.13 1465.94,7541.46 1277.54,7244.46 863.32,6591.49 613.238,5863.13 535.941,5084.58 c -25.781,-259.65 6.829,-605.51 94.219,-1000 82.692,-373.12 186.211,-673.98 365.11,-1061.17 155.12,-335.82 426.33,-750.39 695.32,-1062.85 144.41,-167.78 278.04,-288.21 522.22,-470.67 713.01,-532.812 1596.41,-872.609 2456.02,-944.718 57.19,-4.813 116.6,-10.121 131.99,-11.844 35.74,-4.019 170.82,1.602 283.98,11.844 z m 2140,654.368 c -10.97,8.24 -48.78,34.1 -83.98,57.46 -66.52,44.18 -90.66,68.13 -187.73,186.06 -47.86,58.12 -65.94,73.98 -103.17,90.35 -80.94,35.66 -149.1,116.13 -257.81,304.37 -40.9,70.82 -92.19,141.18 -212.81,291.8 -40.98,51.17 -74.5,95.63 -74.5,98.79 0,7.77 -84.76,160.47 -109.8,197.85 -14.1,21.06 -21.84,47.11 -26.64,89.96 -3.71,33.17 -13.56,75.63 -21.84,94.34 -27.61,62.3 -222.42,325.47 -1583.59,2139.37 -925.9,1233.87 -1176.05,1562.42 -1192.85,1566.53 -31.13,7.61 -104.46,43.04 -141.41,68.36 -32.3,22.1 -51.48,59.57 -90.15,175.78 -16.92,50.93 -20.67,53.9 -76.06,60 -67.62,7.5 -98.24,28.9 -113.01,79.06 -11.05,37.54 -10.74,40.27 7.93,69.84 10.71,16.96 19.46,32.89 19.46,35.47 0,2.58 45.82,49.81 101.83,105 l 101.84,100.31 -18.71,15.16 c -10.32,8.36 -23.68,15.16 -29.73,15.16 -6.05,0 -20.23,18.28 -31.56,40.62 -31.92,62.93 -88.79,148.56 -102.11,153.67 -6.6,2.54 -34.14,33.68 -61.21,69.22 -27.03,35.55 -67.54,81.68 -89.96,102.54 -22.43,20.9 -57,63.17 -76.8,93.95 -36.72,57.15 -185.51,243.4 -216.95,271.6 -9.57,8.55 -40.63,46.76 -69.07,84.92 -49.37,66.33 -53.71,69.96 -98.12,82.46 -25.59,7.15 -61.91,13.05 -80.78,13.05 -18.83,0 -53.44,5.58 -76.96,12.38 -36.48,10.63 -45.66,17.46 -62.93,46.91 -20.82,35.59 -70.74,84.69 -86.01,84.69 -12.27,0 -0.35,133.67 14.49,162.42 6.37,12.35 23.99,35.63 39.14,51.68 15.16,16.1 27.58,35 27.58,42.04 0,7.03 28.79,33.98 63.98,59.88 35.2,25.86 64.03,50.19 64.03,53.98 0,3.83 3.4,4.85 7.58,2.27 4.18,-2.58 22.46,15 40.62,39.06 27.89,36.95 35.78,42.85 50.43,37.73 20.47,-7.1 30.08,-6.91 42.42,0.94 14.34,9.14 79.22,-13.9 104.14,-36.99 12.43,-11.56 26.25,-21.09 30.71,-21.21 16.72,-0.47 60.47,-45.82 99.61,-103.24 48.2,-70.75 53.78,-108.99 20.46,-139.85 -23.75,-22.07 -25.39,-43.63 -5.15,-69.65 8.12,-10.46 22.73,-43.08 32.42,-72.46 11.37,-34.33 38.32,-82.89 75.55,-136.01 71.68,-102.27 544.61,-731.99 568.08,-756.41 34.61,-36.01 57.54,-31.95 144.03,25.39 84.57,56.1 158,84.42 218.86,84.42 31.37,0 39.61,-3.83 63.17,-29.53 20.19,-22.07 27.07,-36.84 27.07,-58.17 0,-25.47 8.24,-36.83 75.35,-103.63 62.19,-61.95 76.95,-81.41 84.53,-111.52 5.04,-20.04 21.84,-53.72 37.34,-74.81 40.67,-55.43 44.18,-74.84 21.61,-120.08 -10.36,-20.74 -18.83,-42.69 -18.83,-48.79 0,-6.05 38.75,-57.5 86.13,-114.25 136.76,-163.79 276.17,-339.07 400.31,-503.21 63.21,-83.59 120.04,-154.88 126.25,-158.4 6.21,-3.51 11.29,-10.82 11.29,-16.21 0,-5.39 27.42,-45.7 60.9,-89.61 33.48,-43.86 84.61,-113.98 113.63,-155.78 145.86,-210 1091.96,-1457.5 1492.62,-1968.01 280.16,-356.99 326.68,-417.93 390.31,-511.13 59.3,-86.8 76.06,-103.51 158.56,-158.16 63.36,-41.99 78.24,-50.2 100,-55.2 13.2,-3.04 41.37,-14.8 62.58,-26.13 34.57,-18.4 48.94,-36.21 136.75,-169.34 60.43,-91.6 136.68,-193.63 198.36,-265.5 60,-69.93 114.03,-142 134.61,-179.65 18.95,-34.57 58.21,-100.67 87.23,-146.88 29.06,-46.21 83.36,-138.01 120.66,-203.98 48.6,-86.02 80.51,-132.5 112.58,-164.03 58.87,-57.81 82.74,-92.14 94.53,-136.09 9.1,-33.83 8.48,-49.92 -4.02,-106.99 -10.16,-46.52 -41.41,-100.27 -103.44,-178.13 -82.93,-103.98 -164.84,-166.05 -303.87,-230.27 -98,-45.27 -107.89,-48.16 -171.99,-50.27 -56.29,-1.84 -71.44,0.35 -88.01,12.73 z m -2567.96,98.05 c -277.82,28.12 -423.72,51.21 -607.35,96.09 -1145.94,280.31 -2084.65,1116.6 -2495.04,2222.89 -116.44,313.95 -178.24,595.82 -213.51,974.1 -31.41,337.04 2.3,739.77 93.12,1113.25 144.22,592.81 436.92,1132.57 862.82,1591.13 91.52,98.55 276.36,273.36 296.36,280.23 10.63,3.68 30.47,-20.58 91.68,-112.03 28.44,-42.5 69.53,-92.93 91.25,-111.99 21.76,-19.06 52.89,-52.7 69.26,-74.69 16.33,-21.99 46.76,-58.01 67.54,-80 59.45,-62.81 133.75,-187.89 122.54,-206.29 -3.24,-5.35 -33.87,-36.05 -68.01,-68.24 -101.68,-95.9 -127.38,-162.85 -100.74,-262.46 12.26,-45.78 83.67,-115 118.67,-115 53.52,0 66.84,-7.73 80.62,-46.68 36.84,-103.71 46.76,-124.57 71.72,-150.59 36.92,-38.43 97.39,-77.18 155.55,-99.64 l 48.52,-18.71 1140.74,-1520.2 C 5486.76,3370.52 5813.91,2931.57 6008.52,2661.22 c 56.75,-78.87 80.31,-137.77 80.31,-200.82 0,-29.37 4.65,-47.58 15.78,-61.76 8.67,-11.01 43.05,-69.8 76.37,-130.66 33.36,-60.82 76.01,-128.79 94.8,-151.02 81.84,-96.75 202.15,-260.7 241.92,-329.57 23.71,-41.05 43.12,-76.17 43.12,-78.01 0,-14.41 -262.46,-135.23 -423.98,-195.15 -243.44,-90.31 -502.58,-155.47 -752.04,-189.02 -256.17,-34.5 -550,-45.63 -727.96,-27.62 z m 2863.98,1213.9 c -15.39,22 -63.63,80.75 -107.19,130.51 -43.55,49.81 -122.26,155.35 -174.96,234.57 -52.69,79.18 -108.87,157.93 -124.8,174.96 -26.72,28.48 -111.72,77.03 -134.89,77.03 -12.65,0 -91.95,50.4 -137.14,87.11 -19.26,15.63 -56.72,60.94 -83.29,100.67 -26.6,39.72 -138.51,187.42 -248.75,328.24 -296.28,378.44 -374.6,479.1 -581.91,748.01 -196.64,255 -983.91,1302.62 -1031.01,1371.99 -14.97,21.99 -62.47,87.42 -105.63,145.39 -43.13,58.01 -78.44,108.01 -78.44,111.13 0,3.13 -13.47,20.86 -30,39.42 -16.48,18.51 -65.97,81.56 -110,140.04 -105.23,139.88 -283.24,364.57 -382.26,482.46 -77.58,92.38 -79.1,94.96 -69.46,118.24 6.18,14.92 8.29,43.44 5.67,76.25 -3.48,43.55 -9.22,59.69 -33.87,95.47 -16.33,23.71 -35.19,62.11 -41.95,85.35 -10.47,36.17 -22.42,51.99 -83.21,110.23 -59.57,57.11 -70.93,72 -70.93,92.93 0,26.64 -15.47,50.94 -66.96,105.08 l -32.34,33.99 h -81.02 c -101.13,0 -158.94,-17.5 -241.32,-73.13 -32.54,-21.95 -62.39,-38.79 -66.33,-37.38 -3.95,1.37 -102.74,130 -219.53,285.82 -190.51,254.1 -210.94,284.26 -198.44,292.93 139.1,96.44 445.62,248.4 665.98,330.12 480.58,178.28 1037.14,257.22 1505.86,213.51 160.42,-14.96 288.16,-31.91 398.12,-52.93 1227.07,-234.26 2244.73,-1094.06 2678.36,-2262.93 116.48,-313.98 178.24,-595.82 213.52,-974.1 31.4,-337.07 -2.27,-739.76 -93.13,-1113.24 -134.14,-551.29 -397.73,-1057.74 -784.49,-1507.19 l -26.25,-30.55 z"
             style="fill:#000000;fill-opacity:1;fill-rule:nonzero;stroke:none"
             id="path20" />
        </g>
      </g>
    </g>
  </g>
</svg>
