<?xml version="1.0" encoding="UTF-8" standalone="no"?>
<!-- Created with Inkscape (http://www.inkscape.org/) -->

<svg
   version="1.1"
   id="svg2"
   width="1300"
   height="1301.3333"
   viewBox="0 0 1300 1301.3333"
   sodipodi:docname="staff.eps"
   xmlns:inkscape="http://www.inkscape.org/namespaces/inkscape"
   xmlns:sodipodi="http://sodipodi.sourceforge.net/DTD/sodipodi-0.dtd"
   xmlns="http://www.w3.org/2000/svg"
   xmlns:svg="http://www.w3.org/2000/svg">
  <defs
     id="defs6">
    <clipPath
       clipPathUnits="userSpaceOnUse"
       id="clipPath18">
      <path
         d="M 0,1.69141 H 9750 V 9751.6914 H 0 Z"
         id="path16" />
    </clipPath>
  </defs>
  <sodipodi:namedview
     id="namedview4"
     pagecolor="#ffffff"
     bordercolor="#000000"
     borderopacity="0.25"
     inkscape:showpageshadow="2"
     inkscape:pageopacity="0.0"
     inkscape:pagecheckerboard="0"
     inkscape:deskcolor="#d1d1d1" />
  <g
     id="g8"
     inkscape:groupmode="layer"
     inkscape:label="ink_ext_XXXXXX"
     transform="matrix(1.3333333,0,0,-1.3333333,0,1301.3333)">
    <g
       id="g10"
       transform="scale(0.1)">
      <g
         id="g12">
        <g
           id="g14"
           clip-path="url(#clipPath18)">
          <path
             d="M 4505.04,18.4492 C 2524.65,176.301 850.82,1491.42 238.75,3370.44 25.1992,4025.99 -46.6406,4728.96 29.4492,5418.41 220.43,7148.49 1336.25,8658.76 2933.83,9349.39 c 782.3,338.2 1632.85,466.02 2479.22,372.62 1629.76,-179.89 3068.71,-1178.95 3807.57,-2643.6 350.98,-695.78 524.26,-1422.93 524.26,-2200 0,-444.68 -54.92,-861.25 -168.28,-1276.09 C 9039.61,1637.2 7361.6,224.352 5329.06,25.9883 5151.09,8.60938 4682.27,4.35156 4505.04,18.4492 Z m 49.02,146.0198 c 39.06,24.293 95,85.972 95,104.801 0,8.359 5.59,19.851 12.42,25.511 23.6,19.61 30.55,43.949 36.33,127.66 3.21,46.168 8.36,90.387 11.49,98.2 5.08,12.847 16.4,14.019 114.68,12.031 60,-1.25 149.22,0.738 198.29,4.379 l 89.18,6.64 8.78,-41.019 c 4.85,-22.582 8.83,-64.371 8.83,-92.891 0,-54.531 12.58,-95.941 34.73,-114.34 7.3,-6.05 13.24,-17.812 13.24,-26.171 0,-18.829 55.94,-80.508 95,-104.801 26.92,-16.719 39.85,-18.239 178.52,-20.778 l 149.53,-2.742 54.49,26.211 c 77.03,37.031 143.52,85.512 199.57,145.43 l 48.36,51.68 5.27,86.332 c 8.64,141.089 7.07,167.886 -11.72,199.726 -9.33,15.82 -15.27,30.473 -13.2,32.582 2.07,2.07 35.82,12.891 75,24.059 644.3,183.441 1263.63,511.641 1785.08,945.971 141.91,118.21 200.35,175.36 312.34,305.47 268.99,312.46 540.2,727.03 695.35,1062.85 235.12,508.91 358.29,919.22 433.72,1445.16 36.56,254.88 43.9,431.6 25.58,616.02 -52.15,525.39 -191.83,1059.88 -395.31,1512.5 -70.94,157.77 -93.32,203.79 -157.73,324.25 -167.97,314.18 -372.43,613.01 -601.61,879.22 -111.99,130.12 -170.43,187.31 -312.34,305.51 -265.66,221.25 -540.7,405.2 -859.49,574.84 -117.39,62.47 -128.44,70.16 -117.19,81.45 23.32,23.32 52.5,155.39 56.17,254.22 l 3.44,91.99 -57.15,61.99 c -31.41,34.1 -63.36,62.03 -70.98,62.03 -7.65,0 -22.34,8.99 -32.69,20 -16.76,17.86 -25.16,20 -78.16,20 -75.24,0 -101.33,-12.18 -173.72,-80.93 -55.62,-52.89 -56.36,-54.14 -87.11,-148.21 -17.07,-52.18 -31.79,-95.82 -32.77,-96.99 -0.98,-1.13 -60.82,17.66 -133.01,41.76 -344.33,115.08 -710.78,192.66 -1083.24,229.34 -278.91,27.42 -630.15,-8.95 -1080,-111.92 -125.55,-28.71 -373.51,-100.51 -464.33,-134.41 -4.61,-1.68 -20.71,35.11 -35.79,81.79 -26.79,82.89 -28.82,86.21 -83.79,138.44 -72.61,68.99 -98.63,81.13 -173.9,81.13 -53.01,0 -61.41,-2.14 -78.17,-20 -10.35,-11.01 -25.03,-20 -32.65,-20 -7.66,0 -39.61,-27.93 -71.02,-62.03 l -57.15,-61.99 3.44,-91.99 c 2.38,-64.49 9.49,-114.69 23.83,-167.89 11.21,-41.76 19.77,-75.98 18.98,-76.02 -10,-0.66 -254.84,-128.79 -348.67,-182.46 C 2408.24,8422.36 2061.72,8169.7 1847.97,7968.41 1717.5,7845.52 1476.8,7544.78 1326.8,7317.16 1199.1,7123.41 1069.8,6896.5 995.469,6735.6 760.352,6226.66 637.191,5816.34 561.762,5290.44 525.199,5035.56 517.852,4858.84 536.172,4674.43 588.32,4149 728.012,3614.55 931.48,3161.89 c 70.94,-157.77 93.32,-203.79 157.74,-324.26 167.97,-314.14 372.42,-613.01 601.6,-879.22 111.99,-130.11 170.43,-187.26 312.34,-305.47 326.96,-272.3 712.7,-516.48 1081.88,-684.76 235.62,-107.418 537.42,-217.418 751.99,-274.141 52.81,-13.949 97.42,-26.641 99.1,-28.238 1.68,-1.571 -2.81,-11.879 -10,-22.86 -14.49,-22.14 -15.97,-58.589 -7.81,-192.339 l 5.27,-86.332 47.62,-50.899 c 58.56,-62.57 108.01,-99.41 188.2,-140.152 l 61.64,-31.328 152,2.269 c 141.72,2.102 153.98,3.469 181.01,20.309 z m -309.37,68.551 c -60.59,23.402 -152.58,82.351 -195.59,125.351 l -47.07,47.07 0.35,50.469 c 0.2,27.781 -2.15,65.32 -5.23,83.399 -6.56,38.671 14.61,87.851 52.73,122.703 31.49,28.75 94.22,225.968 88.83,279.25 -3.36,33.597 -1.72,36.679 44.81,84.028 37.77,38.44 51.68,59.61 63.86,97.26 26.41,81.57 28.6,99.38 14.34,115.12 -10.55,11.68 -11.6,22.85 -6.02,63.91 6.1,44.49 10.78,53.75 44.3,87.77 l 37.42,38.01 84.42,291.52 c 46.4,160.35 87.3,307.74 90.89,327.54 5.24,29.14 65.55,235.82 115.32,395.04 l 9.68,31.02 22.43,-83.01 c 12.34,-45.67 48.82,-178.44 81.05,-295.04 32.23,-116.6 73.59,-266.56 91.95,-333.24 l 33.36,-121.25 -45.27,-161.49 c -27.38,-97.77 -46.8,-184.1 -49.14,-218.75 -6.13,-89.92 -10.27,-107.15 -32.34,-133.36 -12,-14.26 -29.81,-55.74 -42.47,-99.1 -21.52,-73.439 -21.64,-74.959 -7.38,-101.681 16.41,-30.778 18.75,-62.77 7.23,-98.547 -33.13,-102.973 -75.27,-298.25 -79.61,-368.793 -4.34,-70.16 -7.62,-83.707 -26.09,-108.008 -11.65,-15.27 -23.6,-37.539 -26.57,-49.41 -6.64,-26.723 -46.17,-57.821 -88.24,-69.5 -41.33,-11.481 -200.74,-10.313 -231.95,1.719 z m 1101.09,-1.329 c -38.4,11.059 -78.2,43.559 -84.57,69.11 -2.97,11.871 -14.92,34.14 -26.56,49.41 -18.48,24.301 -21.76,37.848 -26.1,108.008 -4.33,70.543 -46.48,265.82 -79.6,368.793 -11.53,35.777 -9.18,67.769 7.22,98.547 14.26,26.722 14.14,28.242 -7.38,101.681 -12.66,43.36 -30.47,84.84 -42.46,99.1 -22.11,26.29 -26.06,42.66 -32.7,136.1 -2.97,41.21 -25.66,135.07 -72.65,300 -37.62,131.99 -77.46,275.97 -88.56,320 -11.05,43.98 -44.72,166.4 -74.8,271.99 -74.81,262.81 -146.88,522.65 -180.82,651.99 -15.63,59.41 -35.32,131.41 -43.79,160 -8.44,28.59 -31.49,115 -51.17,191.99 -19.69,77.03 -51.88,196.33 -71.53,265.2 -32.54,114.1 -38.32,127.58 -65.51,152.5 -25.27,23.16 -30.42,33.59 -33.78,68.79 -2.47,25.62 -0.43,45.74 5.39,52.77 7.22,8.67 6.48,28.13 -3.29,84.26 -6.95,40.12 -16.44,82.77 -21.09,94.73 -4.61,11.99 -18.51,66.75 -30.9,121.75 -21.56,96.02 -113.55,437.82 -128.2,476.33 -3.91,10.24 -23.48,33.71 -43.48,52.19 -30.62,28.2 -39.68,43.94 -56.87,98.51 -11.25,35.75 -22.23,92 -24.38,125 -3.82,57.97 -3.16,60.82 19.89,85.51 13.12,14.03 35.07,31.29 48.82,38.4 16.88,8.75 23.75,17.31 21.21,26.48 -2.07,7.47 -6.05,35.2 -8.86,61.61 -4.85,45.39 -45.04,203.63 -76.21,300 -7.85,24.18 -16.88,60.11 -20.12,79.8 -3.24,19.73 -10.59,43.13 -16.37,51.99 -5.74,8.91 -18.08,35.75 -27.42,59.69 -9.37,23.91 -31.13,73.4 -48.32,110 l -31.33,66.52 h -39.37 c -56.72,0 -81.68,30.24 -104.26,126.33 -20,85.2 -20.9,112.15 -4.65,142.74 15.47,29.22 11.76,53.59 -32.23,210.93 -35.39,126.49 -89.02,337.35 -203.47,800 -35.39,142.97 -71.49,281.57 -80.24,307.97 -13.55,40.98 -82.77,313.4 -157.5,620 -14.06,57.74 -26.44,90.39 -39.57,104.46 -20,21.36 -24.22,46.13 -11.87,69.68 50.12,95.55 51.95,102.82 42.03,167.97 -5.2,34.06 -9.34,76.29 -9.22,93.91 0.43,81.05 -109.49,476.87 -145.27,523.05 -23.71,30.58 -62.82,180.93 -62.82,241.56 0,25.39 68.17,111.4 88.33,111.4 7.07,0 21.32,8.99 31.67,20 10.32,10.98 26.8,20 36.65,20 26.48,0 82.18,-31.71 119.57,-68 28.47,-27.66 37.34,-45.55 65.62,-132 26.41,-80.78 33.48,-115.43 36.84,-180 3.36,-64.72 12.5,-109.33 47.85,-233.36 24.06,-84.33 56.72,-179.33 72.58,-211.09 15.89,-31.72 28.9,-68.28 28.9,-81.17 0,-35.43 13.79,-56.17 33.24,-50 11.1,3.51 23.01,-0.94 37.5,-14.06 11.68,-10.59 34.73,-29.1 51.25,-41.21 24.22,-17.7 29.89,-26.88 29.42,-47.54 -0.31,-14.07 -3.13,-32.15 -6.29,-40.2 -3.52,-8.87 16.87,-103.51 51.68,-240 77.97,-305.86 181.44,-707.65 250.74,-973.4 31.52,-120.97 69.96,-268.59 85.39,-327.97 15.47,-59.41 39.14,-149.41 52.66,-200 51.29,-192.18 62.26,-236.48 62.3,-251.48 0.12,-8.52 7.27,-23.13 16.02,-32.46 23.36,-24.84 71.68,-168.95 71.91,-214.34 0.2,-42.77 -16.21,-88.59 -41.25,-115.23 -18.12,-19.3 -18.04,-28.13 1.02,-170.51 17.5,-130.66 31.95,-191.33 103.83,-435.62 8.98,-30.59 27.97,-79.73 42.11,-109.22 23.39,-48.75 28.32,-54.07 54.33,-58.21 16.45,-2.61 40.67,-15.66 57.07,-30.74 55.71,-51.21 99.46,-240.66 70.35,-304.57 -6.87,-15.08 -4.29,-37.62 12.11,-106.4 11.49,-47.97 26.02,-110.63 32.35,-139.22 29.29,-132.78 46.52,-201.76 67.81,-272 71.6,-236.13 71.25,-235.15 97.85,-252.03 59.18,-37.46 78.52,-105.43 46.33,-162.73 l -18.17,-32.31 29.97,-114.45 c 16.48,-62.97 40.5,-157.69 53.36,-210.51 12.89,-52.77 32.26,-122.97 43.08,-155.97 10.86,-33.01 34.1,-121.21 51.68,-196.02 48.28,-205.51 61.6,-255.39 96.13,-360 17.43,-52.81 40.71,-130.74 51.72,-173.2 11.02,-42.5 40.35,-143.28 65.24,-224.03 24.84,-80.7 48.08,-162.96 51.6,-182.77 3.55,-19.8 44.45,-167.19 90.86,-327.54 l 84.41,-291.52 37.46,-38.01 c 33.48,-34.02 38.17,-43.28 44.26,-87.77 5.59,-41.06 4.53,-52.23 -6.01,-63.91 -14.26,-15.74 -12.08,-33.55 14.33,-115.12 12.19,-37.65 26.09,-58.82 63.87,-97.26 46.52,-47.349 48.16,-50.431 44.8,-84.028 -5.35,-53.282 57.39,-250.5 88.83,-279.25 38.13,-34.852 59.3,-84.032 52.74,-122.703 -3.09,-18.079 -5.43,-55.618 -5.24,-83.399 l 0.35,-50.469 -46.4,-46.402 c -44.42,-44.418 -143.99,-107.66 -200.39,-127.348 -31.8,-11.089 -192.93,-11.05 -231.49,0 z M 5182.85,2811.5 c -2.58,4.14 -23.08,85.7 -45.58,181.25 -22.5,95.55 -46.37,188.98 -53.01,207.69 -6.64,18.68 -35.55,125.79 -64.26,237.97 -47.89,187.31 -51.37,206.45 -42.38,233.71 6.48,19.65 8.28,56.76 5.39,109.69 -4.06,73.56 -3.21,80.43 10.66,84.81 15.16,4.8 16.25,7.85 87.81,243.82 21.29,70.24 38.52,139.22 67.82,272 6.32,28.59 20.86,91.25 32.34,139.22 16.41,68.78 18.98,91.32 12.11,106.4 -29.1,63.91 14.65,253.36 70.35,304.57 16.41,15.08 40.63,28.13 57.07,30.74 26.02,4.14 30.94,9.46 54.34,58.21 14.18,29.49 33.12,78.63 42.11,109.22 71.87,244.29 86.33,304.96 103.83,435.62 19.06,142.38 19.14,151.21 1.01,170.51 -25.04,26.64 -41.44,72.46 -41.25,115.23 0.24,45.39 48.56,189.5 71.91,214.34 8.76,9.33 15.94,23.94 16.02,32.46 0.08,15 11.02,59.3 62.31,251.48 13.51,50.59 37.18,140.59 52.65,200 15.43,59.38 53.87,207 85.39,327.97 69.3,265.75 172.78,667.54 250.74,973.4 34.81,136.49 55.2,231.13 51.68,240 -3.16,8.05 -5.97,26.13 -6.29,40.2 -0.46,20.66 5.2,29.84 29.42,47.54 16.52,12.11 39.57,30.62 51.25,41.21 14.49,13.12 26.44,17.57 37.5,14.06 19.45,-6.17 33.24,14.57 33.24,50 0,12.89 13.01,49.45 28.91,81.17 15.86,31.76 48.51,126.76 72.58,211.09 35.35,124.03 44.49,168.64 47.85,233.36 3.36,64.57 10.43,99.22 36.83,180 28.28,86.45 37.15,104.34 65.63,132 37.38,36.29 93.08,68 119.57,68 9.84,0 26.33,-9.02 36.64,-20 10.35,-11.01 24.61,-20 31.68,-20 20.16,0 88.32,-86.01 88.32,-111.4 0,-60.63 -39.1,-210.98 -62.81,-241.56 -35.78,-46.18 -145.71,-442 -145.28,-523.05 0.12,-17.62 -4.02,-59.85 -9.22,-93.91 -9.92,-65.15 -8.08,-72.42 42.04,-167.97 12.34,-23.55 8.12,-48.32 -11.84,-69.68 -13.16,-14.07 -25.55,-46.72 -39.61,-104.46 -74.73,-306.6 -143.94,-579.02 -157.5,-620 -8.75,-26.4 -44.84,-165 -80.23,-307.97 -114.46,-462.65 -168.09,-673.51 -203.48,-800 -43.99,-157.34 -47.7,-181.71 -32.23,-210.93 16.25,-30.59 15.35,-57.54 -4.65,-142.74 -22.57,-96.09 -47.53,-126.33 -104.25,-126.33 h -39.38 l -31.33,-66.52 c -17.18,-36.6 -38.94,-86.09 -48.32,-110 -9.33,-23.94 -21.68,-50.78 -27.42,-59.69 -5.78,-8.86 -13.12,-32.26 -16.37,-51.99 -3.24,-19.69 -12.26,-55.62 -20.11,-79.8 -31.17,-96.37 -71.37,-254.61 -76.21,-300 -2.82,-26.41 -6.8,-54.14 -8.87,-61.61 -2.54,-9.17 4.33,-17.73 21.21,-26.48 13.75,-7.11 35.7,-24.37 48.83,-38.4 23.04,-24.69 23.71,-27.54 19.88,-85.51 -2.15,-33 -13.12,-89.25 -24.37,-125 -17.19,-54.57 -26.25,-70.31 -56.84,-98.51 -20.04,-18.48 -39.61,-41.95 -43.52,-52.19 -14.64,-38.51 -106.64,-380.31 -128.2,-476.33 -12.38,-55 -26.29,-109.76 -30.9,-121.75 -4.65,-11.96 -14.14,-54.61 -21.09,-94.73 -9.77,-56.13 -10.51,-75.59 -3.28,-84.26 5.82,-7.03 7.85,-27.15 5.39,-52.77 -3.36,-35.2 -8.52,-45.63 -33.79,-68.79 -27.19,-24.92 -32.97,-38.4 -65.51,-152.5 -19.61,-68.87 -53.4,-193.6 -75.04,-277.19 -59.26,-228.94 -92.69,-343.32 -97.89,-334.92 z"
             style="fill:#000000;fill-opacity:1;fill-rule:nonzero;stroke:none"
             id="path20" />
        </g>
      </g>
    </g>
  </g>
</svg>
