<?xml version="1.0" encoding="UTF-8" standalone="no"?>
<!-- Created with Inkscape (http://www.inkscape.org/) -->

<svg
   version="1.1"
   id="svg2"
   width="1300"
   height="1301.3333"
   viewBox="0 0 1300 1301.3333"
   sodipodi:docname="antichain.eps"
   xmlns:inkscape="http://www.inkscape.org/namespaces/inkscape"
   xmlns:sodipodi="http://sodipodi.sourceforge.net/DTD/sodipodi-0.dtd"
   xmlns="http://www.w3.org/2000/svg"
   xmlns:svg="http://www.w3.org/2000/svg">
  <defs
     id="defs6">
    <clipPath
       clipPathUnits="userSpaceOnUse"
       id="clipPath18">
      <path
         d="M 0,3.83984 H 9750 V 9753.8398 H 0 Z"
         id="path16" />
    </clipPath>
  </defs>
  <sodipodi:namedview
     id="namedview4"
     pagecolor="#ffffff"
     bordercolor="#000000"
     borderopacity="0.25"
     inkscape:showpageshadow="2"
     inkscape:pageopacity="0.0"
     inkscape:pagecheckerboard="0"
     inkscape:deskcolor="#d1d1d1" />
  <g
     id="g8"
     inkscape:groupmode="layer"
     inkscape:label="ink_ext_XXXXXX"
     transform="matrix(1.3333333,0,0,-1.3333333,0,1301.3333)">
    <g
       id="g10"
       transform="scale(0.1)">
      <g
         id="g12">
        <g
           id="g14"
           clip-path="url(#clipPath18)">
          <path
             d="M 4540.82,17.5508 C 2466.76,162.16 717.73,1597.24 169.262,3604.46 10.8594,4184.19 -37.6992,4814.03 29.2188,5420.56 220.199,7150.64 1336.02,8660.91 2933.59,9351.53 c 782.31,338.21 1632.86,466.02 2479.22,372.62 1629.77,-179.88 3068.75,-1178.94 3807.58,-2643.59 301.45,-597.58 470.2,-1214.57 516.33,-1887.97 16.8,-245.31 8.59,-590.2 -20.31,-852.03 C 9536.52,2710.79 8537.46,1271.85 7072.81,533.02 6475.23,231.57 5858.2,62.8203 5184.8,16.6914 5049.38,7.39063 4679.22,7.89844 4540.82,17.5508 Z M 5084.8,545.172 c 601.14,54.25 1250.32,246.476 1788.01,529.368 370.86,195.12 762.15,468.48 1025.08,716.06 174.38,164.22 462.7,542.5 645.08,846.36 213.79,356.25 401.44,795.78 510.47,1195.63 30.27,111.01 83.44,338.4 79.96,341.99 -1.1,1.13 -47.23,11.06 -102.54,22.03 -237.19,47.23 -536.8,144.77 -705.12,229.53 l -47.03,23.71 -73.36,-28.04 c -79.96,-30.63 -167.07,-54.07 -260.55,-70.16 -88.9,-15.27 -291.87,-13.05 -383.98,4.22 -148.05,27.77 -138.01,29.1 -167.23,-21.95 -31.87,-55.67 -135.27,-153.83 -292.77,-277.85 -213.48,-168.13 -320.16,-256.8 -480.47,-399.5 -283.44,-252.26 -282.19,-251.17 -371.52,-323.08 -96.06,-77.27 -172.15,-145.59 -291.95,-262.11 -95.08,-92.46 -223.13,-208.21 -350.63,-316.99 -50.35,-43.01 -91.37,-66.14 -141.45,-79.85 -15.39,-4.18 -41.99,-17.19 -59.1,-28.83 -17.11,-11.6 -37.65,-21.13 -45.62,-21.13 -31.41,0 -56.25,-20.23 -82.7,-67.3 -32.58,-58.09 -44.72,-71.61 -108.12,-120.36 -26.64,-20.5 -48.64,-41.56 -48.87,-46.83 -0.19,-5.24 -15.51,-21.64 -33.98,-36.41 -18.48,-14.8 -80.39,-69.29 -137.58,-121.13 -57.23,-51.8 -154.42,-135.59 -216.02,-186.17 l -111.99,-91.96 -5.35,73.09 c -2.93,40.16 -9.34,145.08 -14.22,233.05 l -8.87,160 18.21,14.76 c 10.03,8.09 30.82,26.25 46.25,40.35 15.39,14.11 48.67,40.86 73.98,59.5 25.31,18.67 46.02,36.6 46.02,39.88 0,3.28 -5.82,14.22 -12.89,24.34 -12.07,17.22 -11.8,19.37 4.02,34.1 18.12,16.91 22.26,53.98 8.83,79.14 -4.42,8.24 -32.35,39.72 -62,69.96 -64.33,65.47 -97.89,119.76 -133.86,216.56 -31.96,85.9 -48.75,113.44 -69.26,113.44 -8.44,0 -86.52,-44.57 -173.52,-98.99 -86.99,-54.41 -165.46,-101.25 -174.33,-104.1 -15.39,-4.88 -14.34,4.69 22.62,200.98 21.36,113.36 40.43,213.51 42.38,222.58 1.95,9.06 20.74,28.67 41.76,43.55 21.01,14.88 70.62,51.02 110.23,80.31 78.95,58.36 114.92,79.11 146.95,84.77 52.7,9.3 76.21,30.04 139.3,122.89 34.41,50.59 74.06,104.02 88.16,118.71 21.33,22.31 213.05,182.42 461.33,385.28 29.61,24.21 121.41,99.8 203.95,168 82.58,68.21 163.24,134.77 179.22,147.93 26.09,21.45 352.89,291.92 517.11,427.97 35.19,29.18 118.04,97.85 184.14,152.58 66.05,54.73 151.52,124.73 189.88,155.51 74.34,59.72 75.55,62.15 61.33,123.75 -14.26,61.91 -21.37,208.83 -14.57,301.01 12.03,163.05 50.35,303.01 122.22,446.41 l 43.36,86.44 -31.68,93.21 c -162.61,478.63 -204.29,1019.8 -117.89,1530.62 44.61,263.75 136.33,553.67 253.4,801.17 36.8,77.78 42.74,95.9 33.28,101.84 -6.33,3.95 -69.22,34.1 -139.72,66.99 -522,243.32 -1054.89,389.53 -1623.75,445.55 -278.95,27.42 -630.2,-8.95 -1080,-111.91 C 3291.6,8944.27 2568.79,8581.42 2001.6,8104.07 c -54.57,-45.93 -106.52,-89.41 -115.47,-96.64 l -16.25,-13.16 21.45,-47.85 c 11.83,-26.33 21.48,-51.96 21.48,-56.96 0,-5 3.4,-15.35 7.58,-23 13.32,-24.46 46.99,-139.81 60.08,-205.9 6.99,-35.2 24.88,-101.8 39.8,-147.97 14.89,-46.21 44.03,-139.81 64.73,-208.01 20.7,-68.2 45.98,-145.62 56.17,-172.03 10.24,-26.41 27.7,-78.59 38.83,-115.98 32.46,-108.98 81.48,-261.64 111.8,-348 15.43,-43.99 36.95,-110.59 47.81,-148.01 10.86,-37.39 41.25,-129.18 67.58,-203.99 46.33,-131.72 158.43,-469.8 209.26,-630.9 13.71,-43.39 35.23,-125.11 47.89,-181.6 12.65,-56.48 27.81,-109.45 33.75,-117.69 5.89,-8.28 40.23,-41.76 76.32,-74.42 48.36,-43.79 94.42,-99.37 175.24,-211.4 60.31,-83.6 135.19,-186.88 166.4,-229.49 31.22,-42.62 79.93,-109.15 108.25,-147.78 59.88,-81.8 154.61,-213.24 255.58,-354.72 39.3,-55 78.32,-108.99 86.8,-120 8.44,-10.98 36.41,-50.59 62.11,-88.01 25.7,-37.39 107.89,-154.38 182.62,-260 74.72,-105.59 154.21,-218.32 176.64,-250.51 22.42,-32.19 52.81,-74.73 67.54,-94.53 14.76,-19.85 25.54,-37.19 24.02,-38.6 -1.52,-1.4 -62.19,2.27 -134.81,8.21 -72.57,5.94 -157.18,12.81 -187.96,15.27 -164.65,13.24 -155.59,10.67 -178.95,50.67 -11.6,19.84 -42.19,61.6 -68.01,92.77 -25.82,31.21 -63.32,80.12 -83.36,108.75 -30.62,43.75 -84.92,117.65 -165.62,225.47 -8.83,11.83 -31.02,42.58 -49.22,68.32 -18.24,25.78 -39.34,51.95 -46.88,58.2 -7.53,6.25 -37.57,47.5 -66.75,91.68 -29.18,44.18 -64.22,92.89 -77.89,108.32 -13.68,15.39 -39.69,53.2 -57.82,83.99 -38.2,64.92 -63,100.39 -145.5,208.08 -98.32,128.28 -144.38,190.24 -164.07,220.7 -10.23,15.82 -40.54,50.9 -67.38,78.01 -68.98,69.61 -88.32,66.68 -180.31,-27.38 -28.32,-28.95 -150.43,-95.66 -200.28,-109.45 -26.4,-7.31 -67.77,-15.71 -91.99,-18.68 -54.33,-6.71 -71.99,-15.35 -71.99,-35.27 0,-30 32.07,-100.55 58.24,-128.09 28.24,-29.72 88.36,-118.78 122.74,-181.79 11.4,-20.98 35.82,-57.93 54.22,-82.11 18.39,-24.22 46.52,-65.63 62.53,-92.03 16.02,-26.41 39.54,-58.79 52.27,-71.99 23.87,-24.77 63.13,-75.98 123.36,-160.86 19.06,-26.88 50.82,-71.18 70.62,-98.4 19.81,-27.27 66.61,-91.68 104.03,-143.17 92.11,-126.79 113.01,-159.88 103.01,-163.24 -4.61,-1.52 -54.03,1.37 -109.73,6.49 -55.7,5.11 -155.27,13.47 -221.29,18.63 -66.02,5.12 -140.7,11.4 -166.05,13.94 -50.71,5.16 -41.8,-3.71 -143.17,142.62 -61.29,88.44 -106.87,153.67 -259.88,371.99 -87.89,125.39 -174.81,249.61 -193.13,276.02 -18.32,26.37 -44.88,64.18 -59.02,83.98 -14.1,19.81 -40,61.21 -57.5,92 l -31.8,56.01 -3.55,111.99 c -3.99,126.68 -8.95,140.55 -67.58,187.5 -72.89,58.36 -154.57,151.45 -194.61,221.76 -58.75,103.09 -106.29,216.56 -136.6,325.98 -14.69,52.93 -33.44,114.37 -41.76,136.52 -18.4,49.1 -39.1,118.95 -45.9,154.96 -2.77,14.69 -20.27,63.28 -38.9,107.97 -18.64,44.73 -43.64,120.9 -55.589,169.3 -19.301,78.36 -58.511,204.06 -77.383,248.01 -3.75,8.78 -11.207,31.48 -16.597,50.39 l -9.77,34.41 -18.91,-46.41 c -33.711,-82.5 -120.5,-347.22 -152.961,-466.4 -98.09,-360 -163.75,-776.99 -163.75,-1040 0,-263.09 65.738,-680.55 163.75,-1040 73.551,-269.57 163.789,-511.37 305.11,-817.15 155.12,-335.82 426.33,-750.39 695.32,-1062.85 144.41,-167.78 278.04,-288.21 522.22,-470.67 713.01,-532.812 1596.41,-872.609 2456.02,-944.718 57.19,-4.813 116.6,-10.121 131.99,-11.844 35.74,-4.019 170.82,1.602 283.98,11.844 z M 2832.81,1266.07 c 0,9.6 5.24,37.5 11.6,61.99 14.34,54.92 78.71,322.85 101.06,420.51 9.06,39.6 21.29,90 27.19,111.99 5.86,22.03 13.94,56.21 17.96,76.01 l 7.31,36.02 13.91,-24.02 c 23.51,-40.55 122.93,-217.82 153.9,-274.46 16.1,-29.45 45,-81.33 64.18,-115.27 36.53,-64.57 43.6,-94.26 22.5,-94.26 -23.4,0 -281.01,-132.97 -312.11,-161.05 -9.1,-8.25 -18.83,-14.96 -21.64,-14.96 -2.85,0 -18.4,-8.99 -34.61,-20 -36.29,-24.61 -51.25,-25.36 -51.25,-2.5 z m -766.91,749.25 c -277.89,208.79 -343.95,261.8 -331.99,266.68 8.2,3.36 279.53,56.92 602.93,119.03 323.39,62.11 612.46,117.61 642.38,123.39 29.88,5.75 53.28,7.5 51.99,3.91 -3.16,-8.59 -606.64,-767.07 -613.28,-770.74 -2.81,-1.56 -161.21,114.41 -352.03,257.73 z m 2286.91,-217.15 c -10.97,1.88 -61.4,15.98 -111.99,31.29 -118.71,35.98 -157.97,47.19 -236.02,67.5 -35.19,9.14 -74.8,19.89 -87.96,23.87 -13.21,3.99 -70.82,19.45 -128.01,34.38 -139.45,36.28 -375.04,101.01 -504.03,138.39 -39.57,11.49 -87.3,24.65 -105.97,29.26 -18.71,4.61 -34.03,10.94 -34.03,14.03 0,5.03 139.73,106.25 273.72,198.24 27.65,19.02 86.28,59.69 130.31,90.35 85.55,59.65 80.15,58.32 160,39.8 43.44,-10.07 100.31,-27.46 171.33,-52.34 32.65,-11.41 97.46,-29.45 144.02,-40.04 46.56,-10.58 99.02,-24.41 116.64,-30.7 17.62,-6.29 100.39,-28.48 183.98,-49.34 83.64,-20.86 154.97,-40.66 158.56,-44.06 8.71,-8.16 -92.27,-456.41 -102.54,-455.08 -4.41,0.59 -16.99,2.58 -28.01,4.45 z M 2445.7,2720.24 c -229.92,3.68 -272.11,6.14 -277.38,16.33 -3.44,6.6 -13.52,31.8 -22.42,56.02 -8.87,24.18 -39.96,105.19 -69.06,180 -29.11,74.76 -57.62,148.59 -63.4,163.98 -5.78,15.39 -21.49,56.8 -34.92,92 -13.48,35.19 -30.2,81.36 -37.19,102.61 -6.99,21.25 -18.36,49.49 -25.2,62.74 -23.51,45.43 -11.56,48.2 74.22,17.34 43.17,-15.51 89.26,-31.21 102.46,-34.84 13.21,-3.68 76.21,-25 140,-47.46 63.79,-22.43 126.8,-44.07 140,-48.05 45.04,-13.56 231.92,-78.4 260.63,-90.39 20,-8.36 31.64,-20.12 38.67,-38.95 5.51,-14.84 13.59,-33.67 17.93,-41.79 15.7,-29.42 64.8,-163.09 91.01,-247.82 14.73,-47.61 30.9,-91.52 35.9,-97.54 5,-6.05 7.93,-19.25 6.49,-29.41 -3.13,-21.95 19.02,-21.09 -377.74,-14.77 z m 1881.14,5771.45 c -16.61,12.62 -18.44,28.87 -3.25,28.87 10.79,0 37.23,-24.57 37.23,-34.61 0,-8.83 -19.02,-5.63 -33.98,5.74 z M 5510.62,3215.32 c 39.38,30.12 107.74,85 151.88,122 185.31,155.35 245.66,204.76 282.23,231.25 21.25,15.39 88.47,71.44 149.37,124.57 60.9,53.08 132.66,113.24 159.49,133.63 26.84,20.43 77.27,62.97 112.03,94.61 34.77,31.6 77.58,66.87 95.2,78.32 17.62,11.48 68.01,51.64 111.99,89.22 44.03,37.61 102.39,85.19 129.73,105.7 57.07,42.93 211.84,174.57 269.18,229.02 45.82,43.48 65.43,81.92 53.32,104.53 -8.28,15.47 -75.2,64.42 -88.05,64.42 -3.87,0 -11.87,4.49 -17.81,10 -5.9,5.47 -30.39,26.17 -54.38,45.98 -52.92,43.67 -80.89,74.25 -137.07,149.68 -66.83,89.81 -80.7,92.03 -157.14,24.92 -25.16,-22.07 -58.36,-46.64 -73.75,-54.53 -15.43,-7.89 -35.24,-22.5 -44.03,-32.46 -8.79,-9.96 -59.18,-54.1 -111.99,-98.12 -52.81,-44.03 -113.98,-95.51 -136.02,-114.38 -21.99,-18.86 -72.38,-61.72 -111.99,-95.23 -39.61,-33.52 -95.08,-81.41 -123.32,-106.41 -28.2,-25 -67.61,-57.19 -87.5,-71.56 -19.92,-14.34 -56.21,-45.08 -80.7,-68.36 -24.45,-23.24 -57.07,-50.9 -72.46,-61.45 -15.39,-10.54 -68.75,-53.59 -118.56,-95.62 -49.8,-42.07 -117.93,-97.31 -151.36,-122.77 -33.44,-25.51 -64.69,-51.1 -69.46,-56.96 -4.72,-5.82 -28.43,-25.86 -52.61,-44.49 -24.22,-18.63 -59.73,-48.48 -78.87,-66.33 -19.18,-17.85 -53.4,-46.95 -76.02,-64.72 -100.86,-79.11 -140.78,-120.86 -135.35,-141.61 4.88,-18.71 40.47,-47.22 84.14,-67.5 48.67,-22.53 158.01,-144.02 196.88,-218.71 18.55,-35.7 39.92,-68.51 47.5,-72.89 33.51,-19.57 62.26,-9.72 135.5,46.25 z m -3758.2,2257.5 c 27.97,26.53 72.81,64.85 99.65,85.08 56.09,42.42 178.36,104.42 217.85,110.51 14.81,2.3 39.49,6.13 54.88,8.51 37.62,5.86 52.54,34.3 43.95,83.64 -7.58,43.43 -66.37,236.25 -89.02,292.03 -8.95,21.99 -30.47,85 -47.82,140 -17.34,55 -36.75,111.13 -43.12,124.8 -15.12,32.35 -70.63,207.58 -101.02,318.95 -13.16,48.28 -26.72,91.48 -30.11,96.01 -3.4,4.54 -19.81,49.61 -36.53,100.24 -16.68,50.58 -35.19,102.77 -41.17,115.98 -10.39,23.08 -20.7,55.93 -86.68,276.01 -16.48,55 -35.62,112.58 -42.54,128.01 -20.35,45.27 -42.3,119.69 -54.06,183.24 -11.33,61.29 -25.9,104.73 -35.08,104.73 -5.82,0 -125.12,-159.3 -194.72,-260 -56.76,-82.07 -144.85,-221.92 -200.67,-318.6 l -43.75,-75.82 30.47,-102.77 c 16.76,-56.56 45.51,-149.61 63.91,-206.8 18.39,-57.18 40.15,-127.42 48.32,-156.01 15.82,-55.16 48.12,-150.67 62.18,-183.99 4.69,-11.01 21.45,-63.2 37.31,-116.01 15.86,-52.78 39.14,-128.4 51.76,-167.97 12.57,-39.61 25.39,-84.61 28.47,-100 3.09,-15.43 10.28,-38.83 15.98,-52.03 18.55,-42.89 58.87,-161.53 71.52,-210.35 16.84,-64.89 79.1,-207.74 104.46,-239.65 31.75,-39.92 54.68,-35.51 115.58,22.26 z"
             style="fill:#000000;fill-opacity:1;fill-rule:nonzero;stroke:none"
             id="path20" />
        </g>
      </g>
    </g>
  </g>
</svg>
