<?xml version="1.0" encoding="UTF-8"?>
<svg id="Layer_1" xmlns="http://www.w3.org/2000/svg" version="1.1" viewBox="0 0 35.01 35">
  <!-- Generator: Adobe Illustrator 30.5.1, SVG Export Plug-In . SVG Version: 2.1.4 Build 3)  -->
  <defs>
    <style>
      .st0 {
        fill: #fff;
      }
    </style>
  </defs>
  <path class="st0" d="M18.3,31.24s.06-.11.1-.19c.08-.15.12-.21.34-.44.11-.11.14-.16.16-.24.05-.18.21-.34.57-.62.14-.1.27-.23.56-.52.1-.1.18-.18.19-.18.02,0,.32-.22.39-.28.04-.04.09-.06.18-.08.07-.02.15-.05.19-.07.12-.07.63-.55,4.09-3.85,2.36-2.24,2.99-2.85,2.99-2.89,0-.07.07-.23.11-.31.04-.07.11-.12.35-.23.1-.05.11-.06.11-.17,0-.14.04-.21.14-.26.08-.03.08-.03.15,0,.04.02.07.03.08.03,0,0,.12.08.24.19l.24.19.03-.04s.03-.05.02-.07c0-.01.03-.05.08-.08.12-.08.29-.22.3-.25,0-.01.06-.08.13-.15.07-.07.15-.16.19-.21.04-.05.12-.14.18-.18.11-.09.46-.45.52-.52.02-.02.09-.1.16-.17.13-.12.13-.13.15-.23,0-.06.01-.13,0-.17,0-.04,0-.11,0-.16.01-.08.03-.1.08-.14.07-.05.16-.17.16-.2,0-.03.28-.03.34-.01.03.01.08.04.12.07.04.03.08.05.1.05.01,0,.08.05.14.12.06.07.12.12.13.12,0,0,0,0,0,.02,0,0,.04.04.09.08.08.05.1.06.09.1,0,.04,0,.07.01.09.02.03-.01.17-.05.23-.02.03-.04.06-.04.07,0,.04-.08.14-.19.23-.14.12-.22.14-.29.08-.05-.04-.1-.04-.15,0-.02.02-.08.06-.14.09-.07.03-.16.1-.27.19-.2.17-1.4,1.32-1.45,1.38-.07.08-.05.13.09.3.14.16.22.31.23.44,0,.07,0,.08-.05.14-.04.05-.07.07-.11.07-.05,0-.08.03-.2.18-.12.14-.15.18-.21.2-.04.02-.11.06-.15.1-.11.1-.15.11-.25.08-.05-.02-.1-.03-.11-.03-.01,0-.11.1-.22.21-.31.33-.64.66-.96.96-.16.15-.29.29-.3.3,0,.01-.02.03-.03.03-.01,0-.09.07-.17.15-.08.08-.22.2-.3.28-.4.36-2.79,2.65-3.76,3.61-.68.67-.8.79-.98.94-.17.15-.2.18-.29.37-.07.14-.09.18-.09.22,0,.03-.02.09-.04.14-.03.08-.06.11-.32.33-.18.15-.37.33-.51.48-.13.14-.27.27-.34.33-.07.05-.2.15-.29.22-.09.07-.27.21-.4.3-.17.12-.26.2-.32.28-.11.14-.17.2-.26.23-.07.03-.1.03-.23.02-.1-.01-.22-.06-.4-.17-.24-.15-.39-.3-.56-.58-.12-.2-.13-.21-.15-.35-.02-.12-.02-.15,0-.19"/>
  <path class="st0" d="M8.11,29.56c-.02-.13.01-.29.08-.35.03-.03.08-.09.11-.15.04-.09.08-.12.28-.24.2-.12.71-.53.97-.78.09-.09.19-.13.3-.12.1,0,.1,0,.29-.17.11-.1.21-.22.23-.27.04-.1.09-.14.35-.3.12-.07.36-.28.78-.66.33-.31.7-.64.81-.73.11-.1.42-.38.69-.62.66-.61,1.32-1.21,1.65-1.5.15-.13.34-.3.41-.36.07-.07.29-.26.49-.43s.5-.44.68-.6c.29-.26.32-.3.35-.42.03-.11.05-.14.15-.2.07-.05.13-.07.16-.06.04,0,.09-.02.25-.13.11-.08.22-.17.25-.2.03-.03.17-.15.31-.27.25-.21,1.12-.98,1.21-1.08.02-.03.06-.12.09-.2.04-.13.07-.18.21-.31.09-.09.24-.2.33-.26.17-.1.18-.1.28-.07.06.02.15.06.19.09.05.04.09.04.11.02.02-.02.1-.07.17-.12.13-.08.53-.43.77-.67.06-.06.15-.14.21-.18.05-.04.11-.1.13-.12.02-.03.08-.11.13-.17.06-.06.17-.2.25-.3l.15-.19-.06-.12c-.08-.17-.03-.28.22-.49.22-.18.3-.23.41-.22.11,0,.17-.05.57-.41.32-.29.86-.76,2.06-1.78.37-.32.72-.63.79-.69.1-.1.8-.71,1.59-1.38.15-.13.23-.21.25-.27.03-.09.1-.14.19-.14.36,0,.38,0,.56-.12.09-.07.21-.14.26-.17.24-.12,1.24-1.03,1.33-1.2.06-.11.44-.45.62-.54.07-.04.43.04.46.1.01.02.06.05.11.06.05.01.1.05.11.08.04.08.03.29-.02.45-.04.12-.08.18-.29.39-.2.2-.29.27-.48.38-.19.11-.3.2-.62.49-.21.2-.44.43-.51.53-.07.09-.16.18-.2.21-.1.05-.15.12-.1.17.03.03.03.07.01.13-.01.05-.03.15-.05.21-.01.1-.03.13-.1.16-.04.02-.1.04-.13.04-.03,0-.28.2-.63.51-.79.68-1.82,1.58-2.5,2.18-.31.27-.69.6-.84.74-.15.13-.38.34-.51.45-.49.44-.6.53-.65.56-.02.01-.06.06-.07.1-.04.11-.39.46-.52.53-.13.06-.29.08-.4.05-.08-.02-.11-.01-.5.26-.36.24-.52.38-1.13.95-.08.07-.19.2-.26.29-.11.14-.12.16-.09.25.02.05.01.14,0,.21-.07.24-.56.65-.79.66-.06,0-.12.04-.3.19-.12.1-.29.24-.36.3-.35.28-.52.43-.7.6-.59.56-.59.56-.6.66-.02.23-.19.39-.41.38h-.12s-.29.25-.29.25c-.16.14-.4.35-.54.47-.13.12-.31.28-.4.36-.08.08-.31.28-.5.44-.53.45-.66.56-.92.82-.13.13-.33.31-.44.41-.11.1-.36.33-.56.52-.2.19-.41.38-.46.42-.05.04-.43.38-.83.75l-.73.68-.06.17c-.05.15-.07.18-.19.26-.11.08-.15.09-.2.08-.07-.02-.12.01-.32.21-.09.09-.14.16-.19.33-.07.21-.08.22-.18.26-.16.06-.65.54-.69.67-.05.16-.16.3-.28.34-.06.02-.17.07-.25.11l-.15.07-.21-.07c-.2-.07-.53-.27-.67-.4-.08-.08-.32-.55-.34-.68"/>
  <path class="st0" d="M5.54,28.68c-.13-.05-.3-.12-.37-.16-.12-.07-.27-.25-.27-.33,0-.02-.03-.07-.07-.12-.08-.11-.15-.33-.12-.41,0-.03.09-.14.17-.25.09-.11.16-.23.17-.27.03-.12.21-.35.41-.54.1-.1.24-.23.3-.29.78-.77.98-.95,1.11-.98.08-.02.15-.02.18,0,.05.03.11-.01.43-.29.11-.1.27-.24.36-.32.09-.08.2-.17.24-.2.04-.03.17-.14.27-.24.1-.1.22-.2.26-.23.04-.03.17-.14.29-.24.12-.1.25-.21.29-.25.04-.03.18-.16.31-.28.13-.12.34-.29.45-.38.11-.09.29-.25.4-.34.28-.24.54-.47.59-.51.02-.02.12-.1.22-.19.1-.09.23-.2.29-.25.08-.07.12-.13.15-.22.02-.07.07-.16.11-.2.14-.14.78-.58.89-.61.1-.03.12-.02.27.07l.16.1.26-.24c.14-.13.3-.26.34-.3.05-.04.33-.29.63-.56.3-.27.6-.54.66-.59.16-.14.58-.51.9-.81.15-.14.45-.4.66-.59.21-.19.43-.38.47-.42.05-.05.31-.28.57-.52.27-.24.63-.56.8-.72.37-.33.86-.76,1.27-1.12.16-.14.37-.33.48-.43.1-.1.31-.29.47-.42.42-.37.81-.72.81-.74,0-.01-.02-.09-.04-.18-.03-.15-.03-.17.02-.28.03-.06.09-.14.14-.16.21-.14.38-.29.54-.48.13-.17.19-.22.26-.23.05,0,.11,0,.13,0,.07.04.13,0,.63-.46.15-.14.39-.36.53-.49.47-.44,1.23-1.16,1.35-1.28.06-.06.45-.44.86-.83.98-.94.96-.92.96-1.01,0-.09.14-.25.34-.38.28-.19.7-.55,1.1-.96.38-.38.4-.4.56-.44.26-.06.76-.03.94.06.23.11.41.31.47.51.03.09.05.21.05.26,0,.13-.06.39-.11.48-.02.04-.03.08-.02.09.03.03-.07.18-.2.3-.24.22-.67.6-.86.78-.6.55-.72.65-.84.68-.08.02-.18.08-.31.19-.11.09-.32.27-.48.39-.15.13-.38.31-.5.42-.12.1-.29.24-.36.3-.08.06-.24.19-.35.29-.11.1-.33.28-.49.4-.16.12-.29.24-.3.24-.03.03-.42.36-.54.46-.07.05-.23.18-.35.29-.12.1-.34.28-.49.4-.4.33-.52.43-.52.48,0,.07-.11.2-.26.32-.08.06-.27.22-.44.37-.36.32-.47.35-.66.23-.13-.09-.1-.1-.37.14-.07.06-.29.25-.49.42-.2.17-.42.36-.5.43-.08.07-.21.18-.29.24-.08.06-.16.14-.19.16-.03.02-.32.28-.66.57-.34.29-.74.65-.89.79-.93.88-1.26,1.18-1.99,1.81-.96.83-1.79,1.56-2,1.76-.07.07-.16.15-.2.17-.04.02-.21.17-.37.32-.17.15-.37.33-.44.39-.13.1-.13.11-.1.17.02.03.06.12.07.2.03.12.03.15-.02.22-.03.05-.13.14-.21.21-.08.07-.19.16-.24.21-.23.22-.42.34-.53.34-.09,0-.13.02-.29.18-.1.1-.33.31-.5.47-.17.16-.35.33-.4.38-.05.05-.21.2-.37.34-.16.14-.33.3-.37.35-.05.05-.18.17-.29.27-.11.1-.31.28-.45.41-.13.13-.3.28-.36.33-.13.11-.7.64-1.17,1.09-.3.29-.31.3-.31.42,0,.15-.03.19-.38.49-.16.14-.43.37-.59.52-.16.15-.32.29-.36.32-.06.05-.18.15-.41.36-.05.04-.15.09-.26.11-.1.02-.21.06-.25.09-.13.09-.21.09-.45,0"/>
  <path class="st0" d="M16.68,29.7c-.19.15-.55.45-.78.66l-.43.38-.14.02c-.08.02-.16.04-.19.07-.13.11-.44.12-.68.02l-.11-.05-.27-.31c-.24-.28-.27-.32-.29-.4-.03-.11-.01-.31.03-.4.1-.22.18-.33.29-.43.19-.17.33-.26.41-.25.07,0,.09-.01.27-.16.11-.09.32-.26.47-.38.15-.12.43-.35.63-.51l.35-.29h.12s.12.02.12.02l.81-.7c1.26-1.1,4.12-3.65,4.61-4.12.24-.23.84-.78,1.33-1.21.49-.43,1.04-.94,1.24-1.13.19-.19.55-.51.78-.72l.43-.38h.1c.06.01.14.03.19.04.12.03.15,0,.46-.29.16-.16.27-.24.29-.25.07-.02.81-.65,1.08-.93.13-.13.44-.43.69-.66.36-.34.49-.46.64-.65.18-.22.24-.27.84-.81l.64-.57h.09s.09.01.09.01l.22.26c.2.23.22.27.24.35.04.19.03.21-.44.71-.32.33-.77.72-.84.72-.02,0-.26.2-.64.53-.33.29-.68.59-.77.65-.09.07-.44.37-.78.68-.34.31-.71.64-.84.73-.17.13-.22.18-.21.2.01.03,0,.33-.03.4-.01.05-.11.14-1.11,1-.6.52-1.16,1-1.25,1.06-.11.08-.25.22-.49.47-.32.33-.39.4-1.08.99-.8.68-2.43,2.17-2.58,2.35-.06.07-.39.36-.97.86-.9.78-1.69,1.5-1.76,1.63-.02.04-.04.09-.04.13,0,.07,0,.07-.18.23-.1.09-.34.29-.54.44"/>
  <path class="st0" d="M3.82,14.8s-.07.01-.19-.02c-.13-.04-.15-.05-.33-.19-.25-.2-.39-.37-.5-.63-.09-.19-.12-.32-.12-.42,0-.12.01-.16.05-.22.05-.08.11-.14.26-.23.08-.05.17-.13.32-.28.11-.11.27-.27.35-.35s.2-.19.25-.26c.06-.07.21-.19.37-.3.16-.11.37-.28.54-.44.25-.23.29-.26.37-.28.05-.01.11-.02.14-.02.05,0,.08,0,.23-.06.2-.07.24-.1.41-.24.18-.16.3-.26,1.06-.84,1.08-.84,3.67-2.9,4.07-3.25.08-.07.22-.19.31-.26.09-.07.17-.14.17-.15,0-.01.02-.02.03-.03.01,0,.17-.12.34-.26.34-.27.72-.56,1.08-.82.13-.09.23-.18.24-.19,0-.01,0-.06-.01-.11-.02-.1,0-.14.11-.23.04-.04.09-.1.12-.13.03-.06.07-.09.23-.18.17-.1.2-.12.21-.17.01-.04.03-.07.09-.11.06-.04.08-.04.15-.03.12.03.26.13.4.29.15.16.19.18.28.13.06-.04,1.35-1.08,1.55-1.25.1-.09.18-.17.23-.24.04-.05.08-.11.1-.13.06-.04.06-.09.03-.15-.05-.08-.02-.16.12-.28.11-.1.22-.17.26-.16,0,0,.04,0,.07-.03.06-.03.21-.05.23-.02.02.02.04.03.09.02.03,0,.04.01.08.1.02.06.05.1.06.1,0,0,.01,0,.01,0,0,0,.04.07.1.14.06.07.1.14.1.16s.01.06.04.1c.02.04.05.1.05.13.02.07-.03.35-.05.34-.03,0-.16.07-.22.13-.05.05-.07.06-.15.06-.05,0-.13,0-.17-.01-.04-.01-.12-.02-.17-.02-.1,0-.11,0-.24.12-.08.06-.16.12-.19.14-.08.04-.48.35-.58.44-.06.05-.15.12-.21.15-.06.03-.16.11-.24.16-.08.06-.15.11-.16.11-.03,0-.19.15-.29.26-.03.04-.07.07-.08.07-.01,0-.04,0-.07.02l-.05.02.16.26c.09.14.16.26.15.27,0,0,0,.04.02.08.02.07.02.08-.02.15-.06.1-.13.12-.27.1-.12-.02-.13-.01-.19.08-.14.22-.2.28-.28.31-.09.03-.26.07-.32.07-.04,0-.72.54-3.25,2.59-3.73,3-4.26,3.44-4.35,3.55-.03.04-.07.12-.09.18-.03.08-.06.13-.1.17-.07.06-.32.33-.33.35,0,0-.09.08-.2.16-.32.24-.47.36-.59.49-.32.33-.5.46-.68.49-.09.01-.13.04-.26.13-.26.19-.32.23-.48.28-.08.03-.17.06-.2.07"/>
  <path class="st0" d="M4.15,25.12c-.13-.04-.57-.34-.63-.43-.12-.16-.27-.51-.31-.72l-.04-.21.09-.14c.05-.08.12-.18.14-.24.05-.12.2-.21.37-.24.14-.02.68-.44.76-.6.05-.1.06-.1.28-.15.17-.04.25-.07.35-.15.22-.17.26-.22.25-.29,0-.05,0-.08.1-.18.1-.11.13-.13.28-.16l.17-.03.77-.64c.42-.35.81-.68.85-.73.05-.05.26-.23.48-.4.22-.17.48-.39.59-.49.11-.1.32-.27.46-.38.29-.22.42-.33.93-.8.19-.17.41-.37.5-.44.09-.07.27-.23.4-.35.13-.12.37-.33.54-.48l.29-.26v-.12c.03-.22.21-.37.44-.36.1,0,.1,0,.73-.51.19-.15.36-.31.69-.62.07-.07.23-.21.35-.32.17-.16.22-.21.23-.27.04-.23.51-.66.76-.7.07-.01.16,0,.21.02.08.04.1.03.26-.06.09-.05.24-.15.32-.22.65-.53.8-.67,1.09-.99.32-.35.33-.38.32-.46-.02-.12.02-.27.1-.39.09-.12.48-.43.59-.45.04-.01.09-.04.1-.06.03-.04.14-.14.63-.57.13-.11.36-.31.51-.45.15-.13.53-.46.84-.74.68-.6,1.71-1.5,2.49-2.19.35-.31.58-.53.59-.56,0-.03.03-.08.06-.12.04-.06.07-.07.17-.08.07,0,.16,0,.21-.02.06,0,.1,0,.13.03.04.05.12.02.18-.07.02-.04.13-.11.23-.17.1-.06.37-.26.59-.44.33-.27.43-.38.56-.55.13-.17.21-.25.43-.42.24-.18.29-.22.42-.24.17-.03.38-.01.45.04.03.02.06.07.06.12,0,.05.03.1.05.11.05.04.08.4.03.47-.11.17-.5.5-.62.54-.18.06-1.22.94-1.36,1.16-.03.05-.12.16-.2.24-.15.16-.16.18-.2.54-.01.09-.07.15-.16.17-.06.01-.16.08-.3.21-.77.7-1.46,1.31-1.58,1.4-.07.06-.43.37-.79.69-1.17,1.05-1.71,1.52-2.04,1.8-.41.35-.47.41-.48.52-.01.11-.07.18-.28.38-.24.22-.36.26-.52.15l-.11-.07-.21.12c-.11.07-.26.16-.34.21-.07.05-.15.1-.18.11-.03.01-.1.06-.14.11-.05.05-.14.13-.2.18-.26.2-.67.56-.76.68-.06.07-.12.14-.14.15-.02.02-.02.06,0,.11.02.05.05.13.06.2.02.11.01.12-.1.27-.07.09-.2.22-.3.3-.15.12-.2.14-.34.16-.09.01-.19.04-.22.06-.11.08-.99.84-1.23,1.06-.14.13-.28.25-.31.28-.03.02-.14.12-.23.22-.13.13-.17.19-.17.22,0,.03-.03.09-.08.15-.08.09-.11.11-.22.12-.12.02-.16.04-.46.29-.18.15-.49.42-.69.59-.2.17-.42.37-.49.43-.08.06-.26.22-.42.36-.33.29-1.01.86-1.7,1.44-.28.23-.6.5-.71.6-.11.1-.49.42-.83.71-.43.36-.67.58-.75.68-.19.24-.23.28-.34.31-.06.02-.18.1-.3.19-.19.16-.2.17-.21.26-.01.11-.07.21-.16.28-.28.22-.76.67-.9.86-.14.18-.18.21-.27.25-.06.02-.13.06-.16.08-.07.06-.23.07-.36.03"/>
  <path class="st0" d="M5.13,16.61c.18-.17.41-.39.51-.48.18-.15.18-.16.25-.15.04,0,.1,0,.14-.02.14-.06.96-.74,1.85-1.54.57-.51.91-.8.98-.85.2-.13,1.89-1.55,2.67-2.25.67-.61.75-.67,1.12-.94.28-.21.44-.33.53-.43.07-.07.62-.57,1.22-1.1.99-.88,1.08-.96,1.14-.97.08-.01.37.01.4.03.02,0,.07-.04.22-.19.11-.11.48-.44.84-.73.35-.3.7-.6.78-.68.08-.08.42-.38.75-.68.38-.34.61-.55.61-.57.01-.07.45-.47.83-.74.56-.41.58-.42.76-.35.07.03.11.06.31.29l.23.25v.09s-.01.09-.01.09l-.65.56c-.61.52-.67.57-.91.72-.21.13-.35.23-.73.55-.26.21-.6.48-.75.6-.31.23-1.03.88-1.06.94,0,.03-.11.12-.29.26-.34.27-.37.3-.35.42,0,.05,0,.14,0,.19v.1s-.44.37-.44.37c-.24.2-.6.51-.82.68-.21.17-.79.65-1.28,1.08-.5.43-1.12.95-1.38,1.16-.53.43-3.44,2.93-4.69,4.03l-.8.71v.12s-.01.12-.01.12l-.34.31c-.19.17-.45.42-.59.56-.14.14-.34.32-.44.42-.17.16-.18.18-.19.25,0,.08-.11.21-.31.38-.11.1-.23.15-.46.23-.1.03-.3.02-.4-.02-.08-.03-.11-.06-.36-.34l-.28-.31-.03-.12c-.07-.25-.02-.56.11-.67.03-.02.07-.1.09-.18l.04-.14.43-.38c.24-.21.58-.52.76-.69"/>
  <path class="st0" d="M17.51,1.75h0c.58,0,1.16.03,1.74.1,5.3.58,9.9,3.78,12.31,8.54.97,1.93,1.52,3.93,1.67,6.11.05.78.03,1.91-.07,2.75-.59,5.3-3.78,9.9-8.54,12.31-1.93.98-3.93,1.52-6.11,1.67-.13.01-.47.02-.99.02s-.92-.01-1.09-.02c-6.69-.47-12.37-5.13-14.14-11.6-.51-1.88-.67-3.91-.45-5.87.62-5.6,4.22-10.47,9.39-12.71,2-.86,4.11-1.3,6.28-1.3M17.51,0c-2.39,0-4.76.49-6.97,1.45C4.8,3.93.79,9.35.11,15.57c-.24,2.18-.07,4.44.5,6.52,1.97,7.21,8.25,12.36,15.7,12.88.26.02.74.03,1.21.03.44,0,.87,0,1.1-.02,2.42-.17,4.63-.77,6.78-1.86,5.26-2.65,8.85-7.82,9.5-13.68.1-.94.13-2.18.07-3.06-.17-2.42-.77-4.63-1.86-6.78C30.47,4.34,25.3.75,19.44.11c-.65-.07-1.29-.11-1.93-.11"/>
</svg>