<?xml version="1.0" encoding="UTF-8" standalone="no"?>
<!-- Created with Inkscape (http://www.inkscape.org/) -->

<svg
   version="1.1"
   id="svg2"
   width="1300"
   height="1301.3333"
   viewBox="0 0 1300 1301.3333"
   sodipodi:docname="qtip.eps"
   xmlns:inkscape="http://www.inkscape.org/namespaces/inkscape"
   xmlns:sodipodi="http://sodipodi.sourceforge.net/DTD/sodipodi-0.dtd"
   xmlns="http://www.w3.org/2000/svg"
   xmlns:svg="http://www.w3.org/2000/svg">
  <defs
     id="defs6">
    <clipPath
       clipPathUnits="userSpaceOnUse"
       id="clipPath18">
      <path
         d="M 0,3.83984 H 9750 V 9753.8398 H 0 Z"
         id="path16" />
    </clipPath>
  </defs>
  <sodipodi:namedview
     id="namedview4"
     pagecolor="#ffffff"
     bordercolor="#000000"
     borderopacity="0.25"
     inkscape:showpageshadow="2"
     inkscape:pageopacity="0.0"
     inkscape:pagecheckerboard="0"
     inkscape:deskcolor="#d1d1d1" />
  <g
     id="g8"
     inkscape:groupmode="layer"
     inkscape:label="ink_ext_XXXXXX"
     transform="matrix(1.3333333,0,0,-1.3333333,0,1301.3333)">
    <g
       id="g10"
       transform="scale(0.1)">
      <g
         id="g12">
        <g
           id="g14"
           clip-path="url(#clipPath18)">
          <path
             d="M 4540.82,17.5508 C 2466.76,162.16 717.73,1597.24 169.262,3604.46 10.8594,4184.19 -37.6992,4814.03 29.2188,5420.56 220.199,7150.63 1336.02,8660.91 2933.59,9351.53 c 782.31,338.21 1632.86,466.02 2479.22,372.62 1629.77,-179.88 3068.75,-1178.94 3807.58,-2643.59 301.45,-597.58 470.2,-1214.57 516.33,-1887.97 16.8,-245.31 8.59,-590.2 -20.31,-852.03 C 9536.52,2710.79 8537.46,1271.85 7072.81,533.02 6475.23,231.57 5858.2,62.8203 5184.8,16.6914 5049.38,7.39063 4679.22,7.89844 4540.82,17.5508 Z M 5084.8,545.172 c 522.9,47.18 1071.72,195.226 1576.02,425.148 402.54,183.52 826.09,458.36 1169.92,759.22 l 44.26,38.75 46.05,-42.66 c 40,-37.03 52.78,-43.94 96.92,-52.53 29.49,-5.75 58.48,-17 69.02,-26.76 25.04,-23.24 151.02,-30.71 181.45,-10.74 10.9,7.14 25.31,12.96 31.99,12.96 22.66,0 120.19,56.92 153.98,89.85 18.52,18.01 45,54.65 58.91,81.44 13.87,26.8 31.13,59.53 38.32,72.74 8.59,15.78 13.95,48.63 15.63,95.97 l 2.5,72 -39.34,48.12 c -21.6,26.49 -50.9,71.49 -65.04,100 -14.14,28.56 -43.48,72.35 -65.23,97.35 l -39.5,45.46 66.92,102.54 c 123.55,189.38 251.56,415.16 322.81,569.38 235.12,508.9 358.28,919.22 433.71,1445.15 36.56,254.89 43.91,431.61 25.59,616.02 -52.85,532.58 -184.34,1033.83 -398.71,1520 -110.78,251.25 -285.36,565.66 -428.09,771.02 l -18.79,26.99 82.35,81.56 c 63.9,63.28 82.38,86.41 82.38,103.09 0,11.87 3.32,27.81 7.38,35.43 14.18,26.56 32.66,126.21 32.27,173.9 -0.2,26.41 -5.55,62.39 -11.88,80 -6.37,17.58 -11.6,38.87 -11.68,47.27 -0.15,20 -122.69,139.76 -165.97,162.22 -25.9,13.44 -59.38,19.69 -144.5,26.92 -104.18,8.9 -114.76,8.44 -178.08,-7.58 -63.75,-16.13 -70.12,-19.77 -119.57,-68.87 l -52.27,-51.83 -49.73,43.4 c -778.51,678.98 -1726.79,1087.93 -2757.96,1189.45 -316.57,31.13 -781.57,-26.92 -1256.02,-156.88 -650,-178 -1297.66,-518.51 -1823.98,-958.98 l -72.04,-60.27 -24.33,23.55 c -17.77,17.19 -42.46,28.13 -91.45,40.51 -63.04,15.94 -73.75,16.4 -177.85,7.5 -85.12,-7.23 -118.55,-13.48 -144.49,-26.92 -43.28,-22.46 -165.82,-142.22 -165.98,-162.22 -0.08,-8.4 -5.31,-29.69 -11.64,-47.27 -6.36,-17.61 -11.72,-53.59 -11.91,-80 -0.35,-47.69 18.12,-147.34 32.26,-173.9 4.07,-7.62 7.43,-22.74 7.43,-33.52 0,-12.73 15.46,-36.41 43.98,-67.19 24.18,-26.13 43.98,-50 43.98,-53 0,-3.05 -22.96,-38.56 -51.05,-78.95 C 911.68,6725.6 618.871,5919.78 535.941,5084.58 c -25.781,-259.65 6.829,-605.51 94.219,-1000 138,-622.73 391.75,-1205.27 751.29,-1724.77 34.53,-49.92 55.7,-87.73 51.52,-91.99 -3.91,-3.98 -18.67,-30.58 -32.77,-59.14 -14.15,-28.51 -43.36,-73.51 -65,-100 l -39.34,-48.12 2.54,-72 c 1.64,-47.34 6.99,-80.19 15.58,-95.97 7.19,-13.21 24.46,-45.94 38.36,-72.74 13.87,-26.79 40.39,-63.43 58.87,-81.44 33.79,-32.93 131.37,-89.85 154.02,-89.85 6.68,0 21.06,-5.82 31.96,-12.96 30.35,-19.89 156.36,-12.5 181.48,10.62 9.96,9.22 39.77,21.13 66.13,26.49 26.41,5.35 57.31,16.32 68.64,24.37 l 20.62,14.61 83.36,-68.95 c 258.99,-214.1 550.78,-407.93 855.39,-568.2 541.96,-285.118 1201.37,-479.489 1796.02,-529.368 57.19,-4.813 116.6,-10.121 131.99,-11.844 35.74,-4.019 170.82,1.602 283.98,11.844 z M 1611.25,1728.49 c -36.05,12.57 -82.23,32.65 -102.58,44.61 -34.37,20.11 -75.86,70.74 -75.86,92.57 0,5.16 -8.36,20.51 -18.59,34.14 -22.19,29.54 -40.98,92.86 -34.06,114.69 2.73,8.56 24.41,40 48.2,69.85 23.79,29.84 45.59,63.67 48.48,75.19 8.2,32.62 57.46,96.45 115.07,149.02 28.95,26.41 67.15,62.43 84.93,80 216.09,214.07 273.67,264.77 309.8,273.05 22.77,5.2 41.72,5.63 49.88,1.06 14.93,-8.36 31.64,2.89 120.32,81.09 30.78,27.19 76.52,67.54 101.6,89.65 25.08,22.11 55.66,47.85 67.97,57.15 12.34,9.29 45.97,38.75 74.76,65.47 28.79,26.68 61.21,55.54 71.99,64.1 10.82,8.51 46.64,38.75 79.65,67.11 33.01,28.36 69.03,59.25 80,68.63 11.02,9.37 50.63,44.06 88.01,77.07 37.38,33.01 93.2,81.21 123.98,107.11 30.82,25.9 80.79,69.02 111.02,95.82 77.23,68.36 150.86,131.99 165,142.58 6.6,4.92 33.95,29.02 60.74,53.55 26.8,24.49 63.17,56.02 80.78,70 23.21,18.4 34.93,35.59 42.31,61.96 5.62,20.03 19.49,45.74 30.82,57.07 40.08,40.07 217.42,162.81 247.19,171.05 27.61,7.66 33.82,6.05 74.02,-18.87 l 43.87,-27.18 72.15,65.62 c 39.64,36.09 82.85,73.83 95.97,83.87 13.09,10.04 92.31,80.54 175.98,156.68 83.71,76.13 166.33,150.58 183.63,165.39 44.26,37.97 161.29,142.46 251.8,224.84 42.19,38.4 125.35,112.46 184.72,164.57 59.42,52.11 118.87,105.28 132.11,118.17 13.25,12.85 84.85,77.42 159.14,143.39 74.26,66.02 175.16,156.02 224.18,200 103.05,92.47 238.13,212.04 352.58,312.19 44.03,38.48 103.56,91.99 132.35,118.91 28.79,26.91 87.69,79.49 130.93,116.91 118.09,102.19 224.77,200.35 224.42,206.53 -0.16,3 -4.85,25.93 -10.43,50.89 -9.26,41.45 -8.75,48.21 5.82,76.8 8.79,17.23 26.09,37.77 38.48,45.63 59.57,37.89 106.52,80.31 149.17,134.8 36.92,47.19 52.07,60.55 72,63.59 13.9,2.11 30.78,0.98 37.46,-2.53 20.31,-10.55 34.96,0.07 175.54,127.57 41.68,37.82 108.4,99.3 148.29,136.72 130.15,122.07 342.57,323.28 375.82,356.02 17.89,17.58 126.05,121.95 240.35,231.91 271.76,261.45 267.81,257.31 267.81,280.12 0,25.47 39.3,69.34 95.08,106.17 78.98,52.11 193.83,151.99 306.37,266.45 105.31,107.03 111.25,111.68 156.01,122.11 73.24,17.03 212.03,8.47 260.9,-16.1 63.52,-31.95 113.44,-86.83 129.84,-142.69 7.78,-26.41 13.99,-58.79 13.87,-72 -0.39,-36.17 -16.91,-109.29 -30.04,-132.89 -6.37,-11.44 -9.65,-22.81 -7.23,-25.23 8.4,-8.4 -20.03,-51.29 -54.29,-81.95 -67.62,-60.43 -186.95,-168.68 -238.32,-216.1 -165.86,-153.16 -201.1,-181.72 -233.09,-188.9 -21.01,-4.73 -51.44,-23.36 -86.68,-53.09 -29.88,-25.19 -89.45,-74.65 -132.38,-109.84 -42.93,-35.2 -105.51,-87.5 -139.02,-116.21 -33.56,-28.75 -79.03,-66.49 -101.02,-83.87 -21.99,-17.42 -65.2,-53.48 -96.02,-80.16 -30.78,-26.64 -91.99,-77.11 -135.97,-112.11 -44.03,-35 -81.8,-65.5 -84.03,-67.73 -7.85,-8.09 -117.57,-100.43 -151.95,-127.89 -19.26,-15.43 -62.89,-51.41 -96.91,-80 -33.99,-28.63 -94.96,-79.03 -135.43,-112.03 -111.29,-90.67 -143.67,-120.86 -143.67,-133.79 0,-19.03 -30.67,-56.56 -72.27,-88.48 -21.33,-16.33 -76.21,-62.62 -121.95,-102.81 -100.55,-88.36 -129.65,-98.36 -182.97,-63.09 -36.49,24.14 -26.37,28.05 -103.13,-39.76 -20,-17.62 -81.13,-69.85 -135.86,-116.06 -54.76,-46.21 -117.69,-100.19 -139.88,-120 -22.15,-19.8 -57.81,-50.39 -79.22,-68.01 -21.4,-17.57 -44.72,-37.38 -51.83,-43.98 -7.11,-6.6 -90.32,-78.59 -184.93,-159.92 -94.57,-81.37 -206.4,-180.39 -248.51,-220 -260.08,-245 -351.72,-328.24 -554.96,-504.1 -267.58,-231.57 -498.4,-434.53 -557.31,-490.08 -20.23,-19.1 -45.43,-40.59 -55.97,-47.81 -10.59,-7.19 -57.31,-47.5 -103.87,-89.61 -46.56,-42.07 -101.64,-90.32 -122.42,-107.23 -35.24,-28.67 -37.03,-31.95 -26.68,-48.01 6.09,-9.49 15.39,-34.57 20.66,-55.7 8.6,-34.73 7.97,-40.66 -6.72,-61.29 -8.94,-12.54 -34.96,-38.44 -57.85,-57.54 -22.85,-19.1 -52.54,-44.84 -65.94,-57.26 -64.96,-60 -117.93,-93.44 -147.93,-93.44 -25.7,0 -37.14,-6.92 -81.21,-48.95 -28.2,-26.91 -90.86,-85.54 -139.25,-130.31 -48.4,-44.77 -98.87,-92.07 -112.15,-105.08 -13.28,-13.01 -59.77,-56.09 -103.32,-95.66 -43.56,-39.61 -90.32,-83.24 -103.87,-96.96 -13.59,-13.75 -49.88,-47.53 -80.66,-75.11 -30.82,-27.58 -86.61,-79.42 -124.03,-115.24 -37.38,-35.78 -82.38,-77.26 -100,-92.15 -36.01,-30.5 -194.33,-178.47 -325.11,-303.86 -82.93,-79.53 -86.88,-84.85 -86.88,-116.25 0,-42.74 -7.66,-52.7 -105.66,-137.19 -45.28,-39.06 -119.07,-104.3 -163.99,-144.92 -44.88,-40.63 -89.65,-80.28 -99.41,-88.13 -16.06,-12.81 -50,-42.57 -113.21,-99.18 -13.63,-12.22 -41.09,-23.82 -71.01,-30 -26.84,-5.54 -58.24,-16.68 -69.77,-24.76 -35,-24.49 -57.18,-24.57 -126.52,-0.35 z m 6546.72,-15.71 c -12.58,3.79 -28.79,12.19 -36.02,18.68 -7.22,6.48 -35.5,16.36 -62.89,21.99 -30.86,6.33 -58.2,17.77 -71.99,30.15 -63.16,56.61 -97.15,86.37 -113.16,99.18 -9.81,7.85 -54.53,47.5 -99.46,88.13 -44.88,40.62 -118.67,105.86 -163.98,144.92 -97.97,84.49 -105.67,94.45 -105.67,137.19 0,31.4 -3.94,36.72 -86.87,116.25 -130.78,125.39 -289.1,273.36 -325.12,303.86 -17.58,14.89 -62.58,56.37 -100,92.15 -37.38,35.82 -93.2,87.66 -123.98,115.24 -30.82,27.58 -67.11,61.36 -80.71,75.11 -13.55,13.72 -60.27,57.35 -103.82,96.96 -43.56,39.57 -90.04,82.65 -103.32,95.66 -13.28,13.01 -63.75,60.31 -112.15,105.08 -48.4,44.77 -111.1,103.4 -139.3,130.31 -44.06,42.03 -55.51,48.95 -81.21,48.95 -30,0 -82.97,33.44 -147.89,93.44 -13.44,12.42 -43.13,38.16 -65.98,57.26 -22.85,19.1 -48.86,45 -57.81,57.54 -14.69,20.63 -15.35,26.56 -6.72,61.29 5.24,21.13 14.53,46.21 20.63,55.7 10.39,16.06 8.55,19.34 -26.64,48.01 -20.79,16.91 -75.9,65.16 -122.46,107.23 -46.53,42.11 -93.29,82.42 -103.83,89.61 -10.59,7.22 -35.78,28.71 -56.02,47.81 -32.5,30.66 -216.17,193.55 -345.15,306.09 -274.81,239.81 -335.63,293.28 -335.63,295.28 0,1.28 41.52,39.18 92.27,84.25 l 92.26,81.96 29.38,-22.43 c 16.17,-12.34 60.31,-51.36 98.04,-86.75 91.68,-85.9 270.16,-246.33 299.96,-269.61 13.17,-10.28 29.54,-24.1 36.41,-30.71 43.91,-42.1 328.32,-298.08 347.85,-313.04 13.09,-10.04 56.29,-47.78 95.98,-83.87 l 72.11,-65.62 43.87,27.18 c 40.19,24.92 46.4,26.53 74.06,18.87 29.72,-8.24 207.07,-130.98 247.19,-171.05 11.32,-11.33 25.19,-37.04 30.78,-57.07 7.38,-26.37 19.14,-43.56 42.3,-61.96 17.62,-13.98 53.99,-45.51 80.78,-70 26.84,-24.53 54.14,-48.63 60.74,-53.55 14.18,-10.59 87.78,-74.22 165,-142.58 30.28,-26.8 80.2,-69.92 111.02,-95.82 30.78,-25.9 86.6,-74.1 123.98,-107.11 37.43,-33.01 77.04,-67.7 88.01,-77.07 11.02,-9.38 46.99,-40.27 80,-68.63 33.01,-28.36 68.83,-58.6 79.65,-67.11 10.78,-8.56 43.2,-37.42 71.99,-64.1 28.79,-26.72 62.46,-56.18 74.77,-65.47 12.3,-9.3 42.93,-35.04 68.01,-57.15 25.07,-22.11 70.78,-62.46 101.6,-89.65 88.63,-78.2 105.35,-89.45 120.31,-81.09 8.13,4.57 27.11,4.14 49.84,-1.06 36.14,-8.28 93.72,-58.98 309.85,-273.05 17.73,-17.57 55.94,-53.59 84.88,-80 57.62,-52.57 106.88,-116.4 115.08,-149.02 2.89,-11.52 24.73,-45.35 48.51,-75.19 23.75,-29.85 45.47,-61.29 48.17,-69.85 6.95,-21.83 -11.88,-85.15 -34.06,-114.69 -10.24,-13.63 -18.6,-28.98 -18.6,-34.14 0,-21.83 -41.44,-72.46 -75.82,-92.57 -29.8,-17.47 -166.13,-70.59 -174.14,-67.86 -1.13,0.39 -12.3,3.79 -24.88,7.54 z M 4581.41,5032.71 c -51.45,48.43 -169.81,153.75 -263.05,233.98 -93.24,80.23 -175.35,151.29 -182.46,157.89 -7.11,6.6 -30.43,26.41 -51.84,43.98 -21.4,17.62 -57.07,48.21 -79.22,68.01 -22.14,19.81 -85.07,73.79 -139.84,120 -54.77,46.21 -115.9,98.44 -135.86,116.06 -76.76,67.81 -66.68,63.9 -103.16,39.76 -53.32,-35.27 -82.43,-25.27 -182.97,63.09 -45.74,40.19 -100.63,86.48 -121.96,102.81 -41.56,31.92 -72.22,69.45 -72.22,88.48 0,12.93 -32.42,43.12 -143.67,133.79 -40.51,33 -101.45,83.4 -135.47,112.03 -34.03,28.59 -77.62,64.57 -96.88,80 -34.41,27.46 -144.14,119.8 -151.99,127.89 -2.19,2.23 -40,32.73 -83.98,67.73 -44.03,35 -105.24,85.47 -136.02,112.11 -30.82,26.68 -73.98,62.74 -96.02,80.16 -21.99,17.38 -67.42,55.12 -100.97,83.87 -33.56,28.71 -96.13,81.01 -139.06,116.21 -42.93,35.19 -102.5,84.65 -132.35,109.84 -35.23,29.73 -65.66,48.36 -86.72,53.09 -31.95,7.18 -67.22,35.74 -233.08,188.9 -51.37,47.42 -170.71,155.67 -238.32,216.1 -34.26,30.66 -62.7,73.55 -54.3,81.95 2.42,2.42 -0.82,13.79 -7.23,25.23 -13.08,23.6 -29.65,96.72 -30,132.89 -0.15,13.21 6.1,45.59 13.83,72 16.41,55.86 66.37,110.74 129.88,142.69 48.87,24.57 187.66,33.13 260.86,16.1 44.77,-10.43 50.75,-15.08 156.02,-122.11 112.58,-114.46 227.42,-214.34 306.37,-266.45 55.82,-36.83 95.07,-80.7 95.07,-106.17 0,-22.81 -3.94,-18.67 267.82,-280.12 114.29,-109.96 222.46,-214.33 240.35,-231.91 33.24,-32.74 245.66,-233.95 375.82,-356.02 39.88,-37.42 106.6,-98.9 148.28,-136.72 141.02,-127.89 155.7,-138.51 175.94,-127.54 6.52,3.52 23.16,4.65 37.07,2.54 19.92,-3.04 35.12,-16.48 71.99,-63.63 42.66,-54.49 89.61,-96.91 149.22,-134.8 12.34,-7.86 29.65,-28.4 38.44,-45.63 14.57,-28.59 15.07,-35.35 5.82,-76.8 -5.59,-24.96 -10.28,-47.89 -10.43,-50.89 -0.35,-6.18 106.36,-104.34 224.45,-206.53 43.2,-37.42 102.11,-90 130.9,-116.91 28.79,-26.92 88.36,-80.43 132.34,-118.91 133.01,-116.37 258.99,-228.01 347.81,-308.28 46.29,-41.84 106.84,-95.43 134.5,-119.06 27.69,-23.63 49.29,-45.43 48,-48.44 -3.74,-8.91 -175.97,-160.39 -182.34,-160.39 -3.2,0 -47.93,39.65 -99.37,88.13 z"
             style="fill:#000000;fill-opacity:1;fill-rule:nonzero;stroke:none"
             id="path20" />
        </g>
      </g>
    </g>
  </g>
</svg>
