<?xml version="1.0" encoding="UTF-8" standalone="no"?>
<!-- Created with Inkscape (http://www.inkscape.org/) -->

<svg
   version="1.1"
   id="svg2"
   width="306.53333"
   height="390.09332"
   viewBox="0 0 306.53333 390.09332"
   sodipodi:docname="ref-goal.eps"
   xmlns:inkscape="http://www.inkscape.org/namespaces/inkscape"
   xmlns:sodipodi="http://sodipodi.sourceforge.net/DTD/sodipodi-0.dtd"
   xmlns="http://www.w3.org/2000/svg"
   xmlns:svg="http://www.w3.org/2000/svg">
  <defs
     id="defs6" />
  <sodipodi:namedview
     id="namedview4"
     pagecolor="#ffffff"
     bordercolor="#000000"
     borderopacity="0.25"
     inkscape:showpageshadow="2"
     inkscape:pageopacity="0.0"
     inkscape:pagecheckerboard="0"
     inkscape:deskcolor="#d1d1d1" />
  <g
     id="g8"
     inkscape:groupmode="layer"
     inkscape:label="ink_ext_XXXXXX"
     transform="matrix(1.3333333,0,0,-1.3333333,0,390.09333)">
    <g
       id="g10"
       transform="scale(0.1)">
      <path
         d="m 1045.2,2618.4 c -24.19,-93.11 73.53,-145.61 136.79,-122.4 34.08,12.5 58.94,50.35 62.4,84 7.67,74.29 -54.55,120.11 -117.59,110.4 -40.87,-6.29 -72.5,-36.97 -81.6,-72 z m 287.99,-321.6 c -21.57,-20.95 -40.66,-39.89 -69.6,-38.41 -43.09,2.23 -60.88,78.74 -93.59,91.21 -8.65,3.3 -80,12.28 -93.6,9.6 -31.09,-6.13 -57.74,-77 -96.005,-79.2 -21.645,-1.25 -66.54,34.25 -69.598,48 -9.492,42.55 36.219,80.88 36,117.6 -0.109,17.63 -12.5,27.04 -21.602,48 -6.461,14.88 -8.539,33.07 -16.8,40.8 -24.926,23.32 -104.403,11.01 -120,48 -9.372,22.23 2.996,69.34 9.597,76.8 11.113,12.55 33.824,16.12 50.403,19.2 17.703,3.28 41.671,-1.83 62.402,4.8 14.105,4.51 22.461,23.83 36,43.2 7.418,10.62 29.961,32.14 31.199,48 2.606,33.37 -33.23,73.85 -24.004,110.4 3.137,12.41 49.388,43.09 67.208,40.8 25.14,-3.23 38.49,-21.12 52.79,-38.4 13.86,-16.74 25.62,-47.74 48.01,-55.2 12.2,-4.07 29.95,-1.03 48,-2.4 14.19,-1.08 27,-8.42 43.19,-4.8 36.97,8.25 52.73,76.09 93.61,79.2 22.55,1.71 66.66,-34.52 69.6,-45.6 11.96,-45.02 -35.81,-83.54 -36,-120 -0.1,-17.97 12.72,-31.98 19.2,-45.6 7.71,-16.22 9.56,-33.25 19.2,-43.2 23.45,-24.22 104.02,-11.62 120,-48 7.01,-15.99 1.98,-66.82 -9.6,-79.2 -24.49,-26.18 -74.67,-10.27 -112.8,-24 -11.22,-4.04 -62.15,-67.12 -64.81,-86.4 -5.5,-39.96 26.57,-51.41 21.6,-115.2"
         style="fill:#000000;fill-opacity:1;fill-rule:evenodd;stroke:none"
         id="path12" />
      <path
         d="m 1057.2,2157.6 c -31.36,-3.42 -63.985,-18.06 -91.204,-14.4 -13.5,1.81 -26.543,17.79 -43.203,24 -17.516,6.52 -40.535,10.85 -57.598,9.6 -25.449,-1.87 -15.05,-52.36 -12.004,-62.4 -307.644,-88.35 -507.882,-284.12 -633.597,-554.4 -27.645,7.33 -77.313,15.14 -91.199,-9.6 -3.489,-58.69 32.914,-77.49 45.597,-120 -22.883,-79.35 -52.976,-184.79 -52.801,-283.21 0.188,-99.85 26.7,-194.721 52.801,-278.389 27.789,-89.09 61.246,-170.871 103.199,-240 -58.351,-14.969 -42.82,-128.352 -26.394,-177.602 15.375,-8.5 26.726,-29.34 47.996,-36.008 40.555,-12.703 98.449,3.5 141.602,0 79.449,-73.5 171.617,-132.711 278.398,-182.402 140.262,-65.238 307.447,-123.687 501.607,-105.598 130.05,12.118 250.24,53.239 352.79,100.809 74.71,34.641 148.68,79.41 211.2,127.191 19.58,14.957 45.87,45.7 64.81,50.399 39.49,9.832 92.06,-10.981 139.2,2.41 11.74,3.332 37.07,30.23 45.59,47.988 26.17,54.461 1.14,133.692 -21.6,163.211 105.31,177.301 192.99,422.501 144.01,684.001 -6.1,32.54 -29.61,90.18 -26.4,117.6 5.73,48.88 57.02,69.47 50.4,124.8 -15.03,30.42 -72.85,17.62 -103.2,9.6 -119.17,276.03 -328.74,461.66 -624.01,561.6 12.99,16.2 5.64,46.59 -7.19,57.6 -39.96,0.76 -65.31,-13.1 -91.21,-26.4 -78.67,15.57 -208.38,19.33 -297.59,9.6 z m 19.2,136.8 c 26.54,1.71 72.72,7.89 95.99,2.4 33.89,-8 39.34,-56.89 81.6,-62.4 29.93,-3.9 47.47,6.69 62.41,14.4 17.39,8.98 29.01,27.2 43.2,28.8 26.26,2.95 76.77,-16.57 110.4,-26.4 244.4,-71.48 438.29,-217.09 571.2,-381.6 149.18,-184.67 288.15,-466.53 251.99,-828 C 2262.86,738.219 2124.24,482.301 1935.6,309.602 1753.85,143.199 1486.51,0 1158,0 812.223,0 559.188,129.23 370.797,302.391 185.613,472.602 36.9141,715.578 5.99609,1024.79 -29.2773,1377.5 96.2852,1670.62 245.996,1860 c 133.453,168.81 320.723,313.31 566.399,386.4 35.652,10.6 78.511,29.78 105.597,28.8 25.012,-0.9 28.528,-21.11 64.801,-19.2 43.517,2.28 31.567,36.45 74.407,38.4 5.98,0.27 11.79,-0.48 19.2,0"
         style="fill:#000000;fill-opacity:1;fill-rule:evenodd;stroke:none"
         id="path14" />
      <path
         d="m 1112.4,1684.8 c -3.7,-48.93 10.07,-100.01 40.79,-122.41 18.85,32.51 38.27,71.26 31.2,122.41 -14.01,14.69 -59.38,17.11 -71.99,0 z m 86.4,129.6 c 0,-8.8 0,-17.6 0,-26.4 59.2,0 118.4,0 177.6,0 0,8.8 0,17.6 0,26.4 -59.2,0 -118.4,0 -177.6,0 z m 40.8,72 c -15.42,-9.9 -40.96,-16.71 -43.2,-38.4 38.98,12.21 79.41,22.98 112.8,40.8 -7.55,9.25 -7.55,26.05 -16.81,33.6 -15.96,-12.47 -34.61,-24.33 -52.79,-36 z m -314.405,26.4 c -63.918,-77.64 19.004,-208.68 122.405,-163.2 101.05,44.45 60.92,211.11 -55.202,196.8 -29.886,-3.69 -53.082,-16.45 -67.203,-33.6 z m 511.205,242.4 c -0.88,-10.98 3.59,-13 0,-24 -2.73,-8.36 -11.63,-14.34 -14.41,-24 -2.65,-9.28 -0.58,-22.72 -2.39,-36 -3.36,-24.65 -14.2,-51.03 -12,-69.6 2.84,-24.08 25.3,-48.67 33.6,-76.8 25.89,-87.89 16.09,-190.75 4.8,-295.2 30.91,-29.36 55.99,-63.2 88.79,-96 40.7,-40.69 73.72,-79.89 153.61,-72 118.84,11.74 252.14,40.99 360,67.2 37.59,9.13 78.61,24.05 112.8,9.6 -29.03,-73.26 -70.93,-141.58 -110.4,-208.8 -19.58,-33.33 -38.07,-69.51 -60,-100.8 -21.41,-30.54 -44.38,-64.09 -69.6,-88.8 -40.86,-40.05 -94.13,-66.33 -146.41,-93.61 -51.56,-26.9 -106.67,-53.538 -167.99,-69.601 -25.67,-120.73 -57.47,-235.328 -96,-343.199 -39.08,-8.942 -92.37,4.512 -98.41,-40.801 -5.75,61.461 -89.88,58.102 -91.19,-2.391 -25.06,-8.25 -16.84,16.762 -24,26.391 -1.83,10.18 -11.19,12.82 -16.8,19.199 -40.17,4.961 -61.03,-9.359 -60,-45.59 -31.85,5.012 -78.3,-0.847 -120,0 0.21,32.903 -24.54,50.954 -55.2,43.192 -20.41,-5.16 -22.3,-27.531 -31.21,-43.192 -29.287,-8.636 -14.166,27.864 -35.994,38.403 -32.793,15.82 -63.453,-4.723 -64.805,-38.403 -12.796,0 -25.593,0 -38.394,0 -8.231,29.364 -28.836,46.364 -64.801,48 C 767.473,739.07 735.609,850.41 713.992,972 c -62.574,20.73 -119.269,48.68 -175.199,76.8 -54.316,27.3 -112.09,53.19 -153.598,95.99 -50.832,52.42 -90.707,122.2 -129.597,187.21 -19.852,33.16 -36.696,68.31 -55.203,103.19 -18.192,34.3 -44.68,66.58 -52.801,105.61 39.863,10.49 85.691,-1.66 127.203,-12 39.691,-9.9 78.328,-24.08 120,-31.21 41.586,-7.1 88.766,-12.51 134.398,-19.19 66.504,-9.74 129.2,-27.55 180,0 62.075,33.66 101.918,109 153.598,153.6 -16.918,98.29 -19.133,225.82 12.004,312 6.023,16.68 20.5,35.16 23.996,52.8 2.906,14.64 -1.344,36.48 -4.801,55.2 -3.543,19.22 -3.941,38.46 -7.195,52.8 -4.442,19.58 -24.434,31.34 -16.801,48 0.848,2.75 4.223,6.08 4.801,2.4 68,4.54 100.359,-71.16 153.593,-84 25.58,-6.17 64.32,9.37 98.41,12 53.18,4.09 104.64,-21.13 148.8,-14.4 51.75,7.88 92.33,91.74 160.8,86.4"
         style="fill:#000000;fill-opacity:1;fill-rule:evenodd;stroke:none"
         id="path16" />
      <path
         d="m 999.594,1893.6 c 75.816,9.83 72.166,-102.11 7.206,-103.2 -60.468,-1.02 -74.98,94.41 -7.206,103.2"
         style="fill:#000000;fill-opacity:1;fill-rule:evenodd;stroke:none"
         id="path18" />
      <path
         d="m 447.594,612 c 67.101,-2.441 123.859,0.18 187.203,-2.398 41.859,-1.711 88.656,-10.762 117.598,-4.813 11.277,2.332 14.328,11.383 24,14.41 37.062,-1.34 71.96,-4.847 67.199,-48 21.633,-3.14 34.59,-0.711 64.801,-2.398 4.671,-32.141 22.074,-64.321 33.601,-81.61 -41.855,1.329 -59,1.579 -93.601,2.411 -4.149,-12.661 -6.407,-27.204 -12,-38.403 -29.293,-5.418 -62.317,-3.711 -79.2,14.391 -83.488,-3.149 -189.539,-10.078 -256.8,-12 -33.969,-0.969 -59.047,7.289 -69.598,-21.59 -35.168,8.352 -90.207,-7.988 -120,0 -16.488,4.41 -23.539,22.602 -38.402,26.398 -19.543,36.614 -21.743,102.332 -4.801,144 18.719,-0.968 30.265,21.442 52.801,26.403 22.918,5.039 78.996,3.937 103.199,7.187 10.504,1.422 23.105,-16.148 24,-23.988"
         style="fill:#000000;fill-opacity:1;fill-rule:evenodd;stroke:none"
         id="path20" />
      <path
         d="m 1455.6,446.391 c -9.27,7.531 -13.33,20.281 -14.4,36.007 -60.04,5.532 -110.09,2.364 -165.6,7.204 -3.31,8.789 13.1,22.828 19.19,38.398 5.45,13.898 6.68,28.949 9.6,43.199 9.6,0 19.2,0 28.8,0 8.11,-32.699 18.49,-63.121 40.8,-81.597 23.71,16.296 32.35,47.648 38.4,81.597 8.01,0 16.01,0 24.01,0 8.51,11.481 6.98,33.02 21.6,38.403 19.78,-5.211 43.32,-6.743 57.6,4.789 9.72,-3.059 9.7,-15.891 16.79,-21.602 95.11,-2.598 185.22,10.199 266.41,14.402 23.76,1.239 41.61,-2.121 52.8,14.411 8.04,3.339 21.11,-3.653 33.6,-4.813 32.09,-2.949 70.43,9.473 88.79,4.813 39.44,-10.024 62.75,-105.782 40.8,-153.602 -7.76,-16.941 -22.42,-28.23 -33.59,-40.809 -41.14,4.84 -107.8,-16.511 -136.81,9.598 -100.24,2.602 -202.17,12.051 -307.19,16.801 -21.26,-16.57 -46.99,-3.969 -81.6,-7.199"
         style="fill:#000000;fill-opacity:1;fill-rule:evenodd;stroke:none"
         id="path22" />
      <path
         d="m 1225.2,571.199 c 4.69,-32.918 23.43,-64.558 36,-81.597 -67.84,-0.34 -133.89,-7.59 -196.81,-2.411 16.46,22.75 26.77,51.641 33.61,84.008 30.28,-1.551 83.19,0.981 127.2,0"
         style="fill:#000000;fill-opacity:1;fill-rule:evenodd;stroke:none"
         id="path24" />
      <path
         d="m 1016.4,568.801 c 3.05,-33.75 23.28,-63.102 33.6,-81.61 -30.41,0 -60.805,0 -91.207,0 14.684,22.918 24.66,50.547 31.203,81.61 8.797,0 17.604,0 26.404,0"
         style="fill:#000000;fill-opacity:1;fill-rule:evenodd;stroke:none"
         id="path26" />
      <path
         d="m 874.797,475.191 c 187.603,-8.109 354.883,4.028 539.993,-4.793 3.22,-10.386 4.2,-23.007 14.41,-26.41 -40.91,-83.898 -79.79,-169.808 -132,-242.386 -91.2,0 -182.41,0 -273.61,0 -52.063,88.726 -101.563,180.027 -148.793,273.589"
         style="fill:#000000;fill-opacity:1;fill-rule:evenodd;stroke:none"
         id="path28" />
    </g>
  </g>
</svg>
