<?xml version="1.0" standalone="no"?>
<!DOCTYPE svg PUBLIC "-//W3C//DTD SVG 20010904//EN"
 "http://www.w3.org/TR/2001/REC-SVG-20010904/DTD/svg10.dtd">
<svg version="1.0" xmlns="http://www.w3.org/2000/svg"
 width="512.000000pt" height="512.000000pt" viewBox="0 0 512.000000 512.000000"
 preserveAspectRatio="xMidYMid meet">
<metadata>
Created by potrace 1.14, written by Peter Selinger 2001-2017
</metadata>
<g transform="translate(0.000000,512.000000) scale(0.100000,-0.100000)"
fill="#000000" stroke="none">
<path d="M799 4580 c-60 -10 -136 -50 -176 -92 -18 -18 -45 -60 -60 -93 l-28
-60 0 -1770 c0 -1691 1 -1772 18 -1823 25 -70 101 -152 169 -183 l53 -24 1770
-3 c1973 -3 1822 -8 1921 67 35 26 59 56 84 105 l35 69 0 1786 0 1786 -22 47
c-32 70 -94 131 -166 164 l-62 29 -1745 1 c-960 1 -1766 -2 -1791 -6z m2101
-419 c125 -41 201 -90 317 -207 100 -100 203 -264 203 -323 0 -25 -23 -31
-101 -28 -77 3 -93 -12 -86 -79 9 -88 35 -169 96 -295 43 -92 95 -152 150
-176 43 -18 116 -22 132 -6 6 6 18 40 26 75 8 34 22 71 30 81 20 21 87 22 123
2 35 -20 84 -19 101 3 8 9 23 34 32 55 10 21 23 37 29 35 37 -13 73 -109 84
-229 9 -87 -6 -127 -73 -202 -65 -73 -94 -133 -158 -322 -52 -155 -59 -169
-115 -256 -21 -33 -41 -78 -45 -101 -10 -55 -22 -81 -77 -163 -44 -65 -62
-113 -112 -288 -14 -46 -23 -60 -48 -73 -18 -9 -26 -19 -20 -23 17 -10 -2 -79
-40 -145 -18 -31 -36 -56 -40 -56 -11 0 -24 35 -32 87 -5 35 -3 44 13 52 10 6
24 24 29 41 7 17 18 30 28 30 10 0 0 12 -27 32 -24 17 -45 35 -47 40 -2 4 -10
8 -18 8 -7 0 -23 18 -34 40 -26 50 -59 61 -109 34 -25 -13 -36 -26 -38 -44 -1
-22 -1 -23 4 -2 5 26 54 55 85 50 35 -5 59 -49 69 -129 5 -41 16 -94 24 -119
25 -79 31 -150 18 -232 -17 -109 -24 -119 -56 -77 -38 51 -85 161 -97 231 -6
35 -18 86 -25 113 -8 28 -15 64 -17 80 -2 21 -8 29 -19 27 -9 -1 -24 7 -34 18
-35 39 -126 15 -124 -33 0 -15 2 -17 6 -7 12 32 37 50 69 50 28 0 36 -7 65
-52 22 -36 34 -69 37 -104 4 -54 -14 -191 -27 -199 -5 -2 -17 4 -28 15 -24 22
-93 133 -93 149 0 6 -5 11 -11 11 -8 0 -9 -19 -5 -64 10 -86 -10 -136 -53
-136 -72 0 -91 33 -91 159 0 102 10 138 42 151 13 5 17 9 9 9 -18 1 -51 -28
-51 -45 0 -23 -21 -26 -36 -5 -8 12 -20 21 -26 21 -7 0 -2 -9 10 -20 26 -25
36 -72 37 -170 0 -56 -5 -83 -18 -103 -22 -34 -41 -34 -76 1 l-28 28 -11 -27
c-7 -21 -19 -29 -46 -35 -46 -8 -73 13 -82 65 -10 56 -23 73 -24 30 0 -54 -32
-89 -80 -89 -32 0 -43 5 -57 26 -14 23 -15 34 -5 88 6 33 14 72 18 86 5 21 1
19 -27 -15 -82 -97 -149 -159 -160 -148 -13 13 -17 157 -6 231 10 65 -2 62
-38 -9 -30 -58 -49 -139 -65 -270 -7 -53 -16 -102 -20 -110 -12 -19 -39 8 -76
74 -28 49 -29 59 -32 194 -2 86 1 161 8 190 6 26 14 62 18 79 9 40 64 85 132
107 8 3 4 6 -10 6 -15 1 -47 -16 -77 -39 -46 -35 -56 -38 -77 -29 -19 9 -35 8
-72 -5 -26 -9 -58 -16 -70 -16 -31 0 -62 43 -70 98 -9 70 -35 120 -95 187 -71
79 -79 98 -76 175 2 63 0 70 -75 221 -43 86 -84 184 -93 220 -34 144 -43 162
-105 229 -101 108 -130 203 -96 307 16 49 69 123 88 123 6 0 26 -14 46 -31 34
-30 38 -31 98 -25 72 7 115 -6 157 -48 34 -34 42 -66 27 -111 -19 -57 -11 -65
72 -65 100 0 142 22 194 102 60 92 162 386 149 428 -4 11 -17 28 -31 36 -23
16 -52 16 -174 2 -20 -2 -26 2 -28 21 -9 63 121 242 274 376 75 65 193 135
228 135 9 0 35 7 58 15 70 23 193 34 358 30 123 -2 168 -7 220 -24z m-1259
-753 c27 -37 64 -109 125 -245 30 -67 14 -101 -55 -110 -44 -6 -38 -17 -70
120 -12 48 -30 109 -40 135 -18 46 -26 87 -23 125 3 30 31 19 63 -25z m1969 2
c11 -21 5 -101 -11 -131 -7 -14 -36 -125 -53 -201 -4 -16 -13 -28 -22 -28 -24
0 -91 38 -98 56 -9 25 38 171 75 229 59 94 88 114 109 75z m-1690 -1648 c22
-17 22 -18 5 -77 -26 -96 -23 -91 -45 -69 -11 10 -29 37 -40 59 -12 23 -18 29
-14 15 9 -37 43 -89 65 -100 20 -11 23 -37 13 -102 -4 -21 -11 -35 -15 -32
-35 21 -119 258 -99 278 8 8 14 6 20 -4 8 -12 10 -11 10 6 0 13 10 24 28 31
39 16 47 15 72 -5z m1374 -75 c25 -21 28 -27 19 -52 -11 -35 -38 -54 -53 -39
-6 6 -13 34 -17 62 -7 60 4 66 51 29z m-1168 -223 c-4 -15 -11 -21 -21 -18
-20 8 -19 38 3 82 l17 37 3 -39 c2 -22 1 -49 -2 -62z m991 -18 c6 -30 24 -80
38 -110 l27 -57 -38 -42 c-20 -23 -73 -76 -117 -117 -44 -41 -113 -107 -154
-146 -41 -40 -92 -80 -114 -89 -36 -17 -41 -17 -82 -1 -52 20 -86 20 -111 1
-32 -24 -60 -18 -165 36 -91 47 -108 62 -217 177 -66 69 -122 130 -126 137 -4
6 -3 45 3 86 13 102 18 119 31 119 19 0 48 -32 48 -54 0 -12 5 -28 10 -36 8
-13 13 -13 39 3 23 14 35 15 50 7 11 -5 31 -10 45 -10 14 0 35 -9 46 -20 17
-17 35 -20 113 -22 130 -3 167 -1 182 12 11 9 23 9 48 1 41 -14 92 4 92 32 0
9 5 16 10 15 6 -2 10 -11 9 -20 0 -16 6 -17 55 -12 31 4 63 13 71 20 23 20 97
29 115 14 25 -21 43 -4 50 47 14 101 26 109 42 29z m-149 -1 c29 -46 28 -55
-8 -55 -29 0 -30 2 -30 45 0 25 3 45 8 45 4 0 17 -16 30 -35z m-652 -6 c-3
-17 -6 -42 -6 -55 0 -20 -5 -24 -29 -24 -16 0 -34 6 -40 14 -10 12 -5 23 25
55 44 49 59 52 50 10z m182 -107 c2 -7 -3 -12 -12 -12 -9 0 -16 7 -16 16 0 17
22 14 28 -4z"/>
<path d="M2594 3387 c0 -67 -4 -230 -9 -362 -6 -197 -4 -262 9 -363 19 -143
20 -172 6 -172 -29 0 -121 -44 -149 -72 -55 -54 -75 -103 -75 -188 -1 -62 4
-85 27 -132 26 -53 95 -128 117 -128 6 0 10 14 10 30 0 38 15 38 47 1 l25 -28
37 40 c48 51 65 44 59 -24 -5 -47 -4 -49 21 -49 49 1 110 49 143 111 19 37 23
59 23 139 0 82 -4 103 -26 151 -15 31 -39 68 -55 83 -37 36 -101 66 -140 66
-18 0 -34 6 -37 14 -17 44 -38 369 -33 504 16 387 17 485 10 492 -5 5 -9 -46
-10 -113z"/>
<path d="M1857 2533 c-14 -13 -6 -50 13 -68 11 -10 40 -20 67 -22 93 -8 97 33
8 72 -57 26 -77 30 -88 18z m101 -35 c50 -24 50 -42 1 -46 -65 -6 -110 25 -95
64 7 18 26 14 94 -18z"/>
<path d="M3361 2524 c0 -11 3 -14 6 -6 3 7 2 16 -1 19 -3 4 -6 -2 -5 -13z"/>
<path d="M2137 1842 c43 -13 63 -39 63 -83 0 -22 -5 -50 -11 -62 -11 -19 -10
-19 18 4 23 18 27 26 17 32 -8 4 -14 21 -14 36 0 40 -35 81 -68 80 -25 -1 -25
-1 -5 -7z"/>
<path d="M2292 1719 c24 -13 58 -94 59 -138 0 -20 3 -29 6 -21 4 8 17 33 31
55 20 33 21 37 5 23 -27 -25 -31 -23 -48 19 -18 42 -43 73 -59 73 -6 0 -3 -5
6 -11z"/>
<path d="M2853 1658 c9 -7 26 -31 36 -53 l20 -40 1 43 c0 35 -3 42 -19 42 -11
0 -23 5 -26 10 -3 6 -11 10 -18 10 -6 0 -3 -6 6 -12z"/>
<path d="M2443 1648 c16 -6 27 -17 27 -28 0 -10 5 -22 10 -25 6 -3 10 1 10 9
0 22 -36 56 -57 55 -12 0 -8 -4 10 -11z"/>
<path d="M2635 1616 c-19 -20 -32 -24 -57 -19 -25 4 -38 0 -52 -16 -11 -12
-25 -21 -33 -21 -8 0 -13 -12 -13 -32 1 -29 2 -31 13 -16 7 9 20 30 29 47 18
33 48 40 67 17 7 -8 17 -45 23 -83 5 -37 12 -70 15 -73 2 -2 3 36 1 85 l-3 89
34 23 c22 15 28 23 17 23 -9 0 -28 -11 -41 -24z"/>
</g>
</svg>
